<?xml version="1.0" encoding="UTF-8"?>
<svg version="1.1" xmlns="http://www.w3.org/2000/svg" width="632" height="632">
<path d="M0 0 C208.56 0 417.12 0 632 0 C632 208.56 632 417.12 632 632 C423.44 632 214.88 632 0 632 C0 423.44 0 214.88 0 0 Z " fill="#000000" transform="translate(0,0)"/>
<path d="M0 0 C0.97582031 0.00902344 1.95164062 0.01804688 2.95703125 0.02734375 C4.06111328 0.04474609 4.06111328 0.04474609 5.1875 0.0625 C4.66481534 2.82526177 4.07880413 5.3885876 3.1875 8.0625 C4.1775 8.3925 5.1675 8.7225 6.1875 9.0625 C4.3125 13.8125 4.3125 13.8125 3.1875 16.0625 C4.8375 16.0625 6.4875 16.0625 8.1875 16.0625 C8.1875 16.3925 8.1875 16.7225 8.1875 17.0625 C4.2275 17.7225 0.2675 18.3825 -3.8125 19.0625 C-2.7709375 18.918125 -1.729375 18.77375 -0.65625 18.625 C13.98136933 16.68835155 27.83332919 15.23093795 41.7578125 21.15625 C45.74709677 22.21036612 49.27984335 22.19941454 53.38598633 22.18505859 C68.63074716 22.19725538 68.63074716 22.19725538 74 26.4375 C75.44792862 27.93034611 76.84379923 29.47518936 78.1875 31.0625 C79.00734375 31.87074219 79.8271875 32.67898437 80.671875 33.51171875 C90.61639644 43.59184731 97.33422778 55.84019932 102.1875 69.0625 C102.49429688 69.85140625 102.80109375 70.6403125 103.1171875 71.453125 C105.12922057 76.93351983 105.83553274 82.24897181 106.1875 88.0625 C104.2075 89.0525 102.2275 90.0425 100.1875 91.0625 C100.13851562 92.31804687 100.08953125 93.57359375 100.0390625 94.8671875 C99.3586587 110.63302562 99.3586587 110.63302562 97.66796875 117.9296875 C97.15221584 120.21912723 96.79579105 122.48458605 96.5 124.8125 C96.41363281 125.48796875 96.32726562 126.1634375 96.23828125 126.859375 C96.0868316 129.18353702 96.0868316 129.18353702 96.88671875 131.83984375 C97.3043618 136.31459071 95.7674268 138.99216218 93.6875 142.875 C93.31874756 143.58350098 92.94999512 144.29200195 92.57006836 145.02197266 C89.63461401 150.52460954 86.32542153 155.38638399 82.1875 160.0625 C81.51074219 160.86945313 80.83398438 161.67640625 80.13671875 162.5078125 C73.9333358 169.71387369 66.52450944 178.17103901 57.1875 181.0625 C55.8675 181.0625 54.5475 181.0625 53.1875 181.0625 C51.16537201 181.74303429 51.16537201 181.74303429 49.140625 182.7421875 C48.3775 183.09410156 47.614375 183.44601562 46.828125 183.80859375 C45.64476562 184.36740234 45.64476562 184.36740234 44.4375 184.9375 C36.39143299 188.73256161 29.21063681 191.43846403 20.1875 191.0625 C19.5275 193.0425 18.8675 195.0225 18.1875 197.0625 C-10.23284934 197.95063592 -10.23284934 197.95063592 -20.8125 192.0625 C-21.48727555 190.39909981 -22.15388822 188.73236609 -22.8125 187.0625 C-25.0447702 185.64096934 -25.0447702 185.64096934 -27.6875 184.8125 C-28.55117188 184.49796875 -29.41484375 184.1834375 -30.3046875 183.859375 C-31.13226563 183.59640625 -31.95984375 183.3334375 -32.8125 183.0625 C-33.53695313 182.82015625 -34.26140625 182.5778125 -35.0078125 182.328125 C-35.60335938 182.24046875 -36.19890625 182.1528125 -36.8125 182.0625 C-37.4725 182.7225 -38.1325 183.3825 -38.8125 184.0625 C-47.52229416 183.38362715 -55.39811577 174.36691999 -60.8125 168.0625 C-68.8125 157.15340909 -68.8125 157.15340909 -68.8125 154.0625 C-97.1925 154.0625 -125.5725 154.0625 -154.8125 154.0625 C-155.4725 152.7425 -156.1325 151.4225 -156.8125 150.0625 C-171.05102918 149.96898059 -185.28951061 149.89874975 -199.52828407 149.85525131 C-206.13989538 149.83437449 -212.75130039 149.80605434 -219.36279297 149.76074219 C-225.74295455 149.71728899 -232.12291766 149.69336361 -238.50321579 149.68299103 C-240.93769836 149.67559881 -243.37217004 149.66116366 -245.80656815 149.63957977 C-249.21584824 149.61055385 -252.62430768 149.60654381 -256.03369141 149.60839844 C-257.54420578 149.58682678 -257.54420578 149.58682678 -259.0852356 149.56481934 C-264.76451828 149.55582132 -264.76451828 149.55582132 -269.74981689 152.05754089 C-274.47339887 155.14979313 -279.06663738 154.62845327 -284.59423828 154.59594727 C-285.77552811 154.60456284 -286.95681793 154.61317841 -288.17390442 154.62205505 C-291.40379876 154.64083191 -294.63304444 154.64162004 -297.8629632 154.63273358 C-300.56868905 154.62760661 -303.27432395 154.63493094 -305.98004043 154.64220566 C-312.37251728 154.65919186 -318.76475541 154.65565628 -325.15722656 154.63891602 C-331.72500602 154.62203735 -338.29211875 154.63777256 -344.85982525 154.6701389 C-350.51873532 154.69695754 -356.17743943 154.70407674 -361.83640659 154.69562382 C-365.20709884 154.69072492 -368.57739131 154.6927413 -371.94803238 154.71341133 C-375.71730377 154.73094874 -379.48517772 154.71623299 -383.25439453 154.69360352 C-384.90075142 154.71114182 -384.90075142 154.71114182 -386.58036804 154.72903442 C-394.61098579 154.63158291 -400.60563464 152.46870828 -407.8125 149.0625 C-409.72408344 148.27914574 -411.64008649 147.50638708 -413.5625 146.75 C-414.38234375 146.42386719 -415.2021875 146.09773437 -416.046875 145.76171875 C-416.62953125 145.53097656 -417.2121875 145.30023438 -417.8125 145.0625 C-417.8125 144.7325 -417.8125 144.4025 -417.8125 144.0625 C-303.6325 144.0625 -189.4525 144.0625 -71.8125 144.0625 C-71.8125 142.7425 -71.8125 141.4225 -71.8125 140.0625 C-68.8125 138.0625 -68.8125 138.0625 -64.8125 138.0625 C-64.81472061 137.16269913 -64.81694122 136.26289825 -64.81922913 135.33583069 C-64.83922944 126.87436033 -64.8544728 118.41289786 -64.86431217 109.95140934 C-64.86954065 105.60081541 -64.87663765 101.25024093 -64.88793945 96.8996582 C-64.89876959 92.70459742 -64.9047771 88.50955541 -64.90737724 84.31448174 C-64.90923126 82.71043032 -64.91285144 81.10637997 -64.91823006 79.5023365 C-64.92544219 77.26333485 -64.92649087 75.0244117 -64.92602539 72.78540039 C-64.928246 71.50854874 -64.93046661 70.23169708 -64.93275452 68.91615295 C-64.8125 66.0625 -64.8125 66.0625 -63.8125 65.0625 C-61.15786879 64.60790142 -58.49060862 64.36006762 -55.8125 64.0625 C-60.99332051 60.71655342 -64.66027564 59.49423504 -70.8125 59.0625 C-70.1525 57.4125 -69.4925 55.7625 -68.8125 54.0625 C-161.8725 54.0625 -254.9325 54.0625 -350.8125 54.0625 C-350.8125 53.4025 -350.8125 52.7425 -350.8125 52.0625 C-350.17441406 51.71316406 -349.53632813 51.36382812 -348.87890625 51.00390625 C-348.05261719 50.54886719 -347.22632813 50.09382813 -346.375 49.625 C-345.55128906 49.17253906 -344.72757812 48.72007812 -343.87890625 48.25390625 C-341.88941202 47.22587603 -341.88941202 47.22587603 -340.8125 46.0625 C-338.48614783 45.95164906 -336.18919412 45.90512143 -333.86181641 45.90136719 C-333.13497147 45.89640228 -332.40812653 45.89143738 -331.65925598 45.88632202 C-329.24418201 45.87166449 -326.82917373 45.86489232 -324.4140625 45.859375 C-322.74116004 45.85362629 -321.06825762 45.84786853 -319.39535522 45.84210205 C-315.88303316 45.83158169 -312.37073405 45.82574588 -308.85839844 45.82226562 C-304.35327968 45.81678013 -299.84846306 45.79275544 -295.3434391 45.76429367 C-291.88623158 45.74568775 -288.42909709 45.74046278 -284.97184372 45.73892975 C-283.31081872 45.73589781 -281.64979518 45.7278511 -279.98881912 45.71474457 C-277.66630204 45.69772706 -275.34452645 45.69955346 -273.02197266 45.70605469 C-271.98854988 45.69223251 -271.98854988 45.69223251 -270.93424988 45.6781311 C-269.01382446 45.69500732 -269.01382446 45.69500732 -265.8125 46.0625 C-265.33355789 46.5568454 -264.85461578 47.0511908 -264.36116028 47.56051636 C-261.74004539 50.10263082 -258.2824558 49.47801252 -254.82446289 49.45068359 C-253.60449364 49.45856903 -253.60449364 49.45856903 -252.35987854 49.46661377 C-249.66810976 49.47983047 -246.97693118 49.4710691 -244.28515625 49.4609375 C-242.41572455 49.46295795 -240.54629362 49.46586915 -238.67686462 49.46963501 C-234.75691227 49.47406078 -230.83716488 49.46761989 -226.91723633 49.45361328 C-221.89209429 49.43653306 -216.86743333 49.44635358 -211.842309 49.46433067 C-207.98099647 49.47517175 -204.11979795 49.47172047 -200.25848198 49.4639473 C-198.40571473 49.46194557 -196.55293714 49.46440359 -194.70018196 49.47138596 C-192.10981975 49.47900445 -189.52023589 49.46739038 -186.92993164 49.45068359 C-185.78037994 49.45979263 -185.78037994 49.45979263 -184.60760498 49.46908569 C-180.44385752 49.47140959 -180.44385752 49.47140959 -176.87641335 47.55940533 C-174.39568651 45.76019548 -173.17057191 45.69973565 -170.14009094 45.73106384 C-169.20521347 45.73297729 -168.270336 45.73489075 -167.30712891 45.73686218 C-165.7789856 45.76258049 -165.7789856 45.76258049 -164.2199707 45.78881836 C-163.14144333 45.79468964 -162.06291595 45.80056091 -160.95170593 45.80661011 C-158.60866869 45.82026519 -156.26566179 45.84024364 -153.92272377 45.86576653 C-150.21061325 45.90261842 -146.49919364 45.91512188 -142.78691101 45.91981506 C-132.23189289 45.93457682 -121.67773302 45.96964055 -111.12329102 46.0793457 C-104.66682823 46.14469764 -98.21178132 46.16127661 -91.75502586 46.14663887 C-89.29783729 46.15042317 -86.84060489 46.17246049 -84.38375282 46.2133007 C-71.25383032 47.13697249 -71.25383032 47.13697249 -59.3374939 42.90579224 C-57.00474203 40.37954129 -55.38353532 38.10781713 -53.8125 35.0625 C-53.37549271 34.32511093 -52.93848541 33.58772186 -52.48823547 32.82798767 C-50.99024677 30.22190369 -49.97886904 27.67848665 -49.1953125 24.77734375 C-47.40194893 18.1463266 -44.72330852 15.46596708 -38.8125 12.0625 C-26.96831163 5.35324547 -13.83410731 -0.16667599 0 0 Z " fill="#010102" transform="translate(500.8125,164.9375)"/>
<path d="M0 0 C0.97582031 0.00902344 1.95164062 0.01804688 2.95703125 0.02734375 C4.06111328 0.04474609 4.06111328 0.04474609 5.1875 0.0625 C4.66481534 2.82526177 4.07880413 5.3885876 3.1875 8.0625 C4.1775 8.3925 5.1675 8.7225 6.1875 9.0625 C4.3125 13.8125 4.3125 13.8125 3.1875 16.0625 C4.8375 16.0625 6.4875 16.0625 8.1875 16.0625 C8.1875 16.3925 8.1875 16.7225 8.1875 17.0625 C4.2275 17.7225 0.2675 18.3825 -3.8125 19.0625 C-2.7709375 18.918125 -1.729375 18.77375 -0.65625 18.625 C13.98136933 16.68835155 27.83332919 15.23093795 41.7578125 21.15625 C45.74709677 22.21036612 49.27984335 22.19941454 53.38598633 22.18505859 C68.63074716 22.19725538 68.63074716 22.19725538 74 26.4375 C75.44792862 27.93034611 76.84379923 29.47518936 78.1875 31.0625 C79.00734375 31.87074219 79.8271875 32.67898437 80.671875 33.51171875 C90.61639644 43.59184731 97.33422778 55.84019932 102.1875 69.0625 C102.49429688 69.85140625 102.80109375 70.6403125 103.1171875 71.453125 C105.12922057 76.93351983 105.83553274 82.24897181 106.1875 88.0625 C104.2075 89.0525 102.2275 90.0425 100.1875 91.0625 C100.13851562 92.31804687 100.08953125 93.57359375 100.0390625 94.8671875 C99.3586587 110.63302562 99.3586587 110.63302562 97.66796875 117.9296875 C97.15221584 120.21912723 96.79579105 122.48458605 96.5 124.8125 C96.41363281 125.48796875 96.32726562 126.1634375 96.23828125 126.859375 C96.0868316 129.18353702 96.0868316 129.18353702 96.88671875 131.83984375 C97.3043618 136.31459071 95.7674268 138.99216218 93.6875 142.875 C93.31874756 143.58350098 92.94999512 144.29200195 92.57006836 145.02197266 C89.63461401 150.52460954 86.32542153 155.38638399 82.1875 160.0625 C81.51074219 160.86945313 80.83398438 161.67640625 80.13671875 162.5078125 C73.9333358 169.71387369 66.52450944 178.17103901 57.1875 181.0625 C55.8675 181.0625 54.5475 181.0625 53.1875 181.0625 C51.16537201 181.74303429 51.16537201 181.74303429 49.140625 182.7421875 C48.3775 183.09410156 47.614375 183.44601562 46.828125 183.80859375 C45.64476562 184.36740234 45.64476562 184.36740234 44.4375 184.9375 C36.39143299 188.73256161 29.21063681 191.43846403 20.1875 191.0625 C19.5275 193.0425 18.8675 195.0225 18.1875 197.0625 C-10.23284934 197.95063592 -10.23284934 197.95063592 -20.8125 192.0625 C-21.48727555 190.39909981 -22.15388822 188.73236609 -22.8125 187.0625 C-25.0447702 185.64096934 -25.0447702 185.64096934 -27.6875 184.8125 C-28.55117188 184.49796875 -29.41484375 184.1834375 -30.3046875 183.859375 C-31.13226563 183.59640625 -31.95984375 183.3334375 -32.8125 183.0625 C-33.53695313 182.82015625 -34.26140625 182.5778125 -35.0078125 182.328125 C-35.60335938 182.24046875 -36.19890625 182.1528125 -36.8125 182.0625 C-37.4725 182.7225 -38.1325 183.3825 -38.8125 184.0625 C-47.52229416 183.38362715 -55.39811577 174.36691999 -60.8125 168.0625 C-68.8125 157.15340909 -68.8125 157.15340909 -68.8125 154.0625 C-97.1925 154.0625 -125.5725 154.0625 -154.8125 154.0625 C-155.4725 152.7425 -156.1325 151.4225 -156.8125 150.0625 C-171.05102918 149.96898059 -185.28951061 149.89874975 -199.52828407 149.85525131 C-206.13989538 149.83437449 -212.75130039 149.80605434 -219.36279297 149.76074219 C-225.74295455 149.71728899 -232.12291766 149.69336361 -238.50321579 149.68299103 C-240.93769836 149.67559881 -243.37217004 149.66116366 -245.80656815 149.63957977 C-249.21584824 149.61055385 -252.62430768 149.60654381 -256.03369141 149.60839844 C-257.54420578 149.58682678 -257.54420578 149.58682678 -259.0852356 149.56481934 C-264.76451828 149.55582132 -264.76451828 149.55582132 -269.74981689 152.05754089 C-274.47339887 155.14979313 -279.06663738 154.62845327 -284.59423828 154.59594727 C-285.77552811 154.60456284 -286.95681793 154.61317841 -288.17390442 154.62205505 C-291.40379876 154.64083191 -294.63304444 154.64162004 -297.8629632 154.63273358 C-300.56868905 154.62760661 -303.27432395 154.63493094 -305.98004043 154.64220566 C-312.37251728 154.65919186 -318.76475541 154.65565628 -325.15722656 154.63891602 C-331.72500602 154.62203735 -338.29211875 154.63777256 -344.85982525 154.6701389 C-350.51873532 154.69695754 -356.17743943 154.70407674 -361.83640659 154.69562382 C-365.20709884 154.69072492 -368.57739131 154.6927413 -371.94803238 154.71341133 C-375.71730377 154.73094874 -379.48517772 154.71623299 -383.25439453 154.69360352 C-384.90075142 154.71114182 -384.90075142 154.71114182 -386.58036804 154.72903442 C-394.61098579 154.63158291 -400.60563464 152.46870828 -407.8125 149.0625 C-409.72408344 148.27914574 -411.64008649 147.50638708 -413.5625 146.75 C-414.38234375 146.42386719 -415.2021875 146.09773437 -416.046875 145.76171875 C-416.62953125 145.53097656 -417.2121875 145.30023438 -417.8125 145.0625 C-417.8125 144.7325 -417.8125 144.4025 -417.8125 144.0625 C-303.6325 144.0625 -189.4525 144.0625 -71.8125 144.0625 C-71.8125 142.7425 -71.8125 141.4225 -71.8125 140.0625 C-68.8125 138.0625 -68.8125 138.0625 -66.125 138.4375 C-65.361875 138.64375 -64.59875 138.85 -63.8125 139.0625 C-63.8125 140.0525 -63.8125 141.0425 -63.8125 142.0625 C-62.97440796 141.98394775 -62.97440796 141.98394775 -62.11938477 141.90380859 C-46.03869879 140.59265761 -46.03869879 140.59265761 -40.97265625 143.9375 C-39.5855394 145.64144392 -38.2598531 147.3968194 -36.9921875 149.19140625 C-29.99944665 158.40227457 -18.60984456 163.75562097 -7.8125 167.0625 C-7.19375 167.26101563 -6.575 167.45953125 -5.9375 167.6640625 C-1.97081605 168.40781574 2.13656095 168.34820122 6.16796875 168.40429688 C11.39695804 168.61601678 13.93451573 170.2215065 18.1875 173.0625 C24.59740215 174.05340275 29.69040107 171.60686371 35.4375 169.0625 C36.3646582 168.65749268 37.29181641 168.25248535 38.24707031 167.83520508 C45.05440248 164.77118929 51.92628654 161.49831125 57.1875 156.0625 C57.99810448 153.94028204 57.99810448 153.94028204 58.1875 152.0625 C57.1975 151.4025 56.2075 150.7425 55.1875 150.0625 C56.71215452 146.70203698 58.69403759 143.98421849 60.9375 141.0625 C65.13169348 135.38127429 68.20975084 129.44474581 71.1875 123.0625 C71.5484375 122.39605469 71.909375 121.72960937 72.28125 121.04296875 C78.39611207 107.67988656 76.09139609 89.3504765 71.1875 76.0625 C64.10156439 60.48373601 54.83603238 49.77744965 40.1875 41.0625 C40.73473683 37.68787285 41.2424 35.98015 43.1875 33.0625 C42.46304687 32.88074219 41.73859375 32.69898438 40.9921875 32.51171875 C27.4119898 28.98086735 27.4119898 28.98086735 24.8984375 25.04296875 C21.42305406 21.0200934 15.20773463 21.48986911 10.1875 21.0625 C3.43549656 20.76860699 -3.15874238 20.82459161 -9.8125 22.0625 C-9.6475 22.743125 -9.4825 23.42375 -9.3125 24.125 C-8.74173028 27.47827212 -8.78049885 30.66637785 -8.8125 34.0625 C-9.64652344 34.42601562 -10.48054688 34.78953125 -11.33984375 35.1640625 C-18.28834589 38.26820435 -24.69739837 41.52268824 -30.8125 46.0625 C-31.37582031 46.47242188 -31.93914062 46.88234375 -32.51953125 47.3046875 C-34.62575172 48.93634184 -36.48328013 50.37846381 -37.65405273 52.81103516 C-38.7941418 55.14660224 -39.7558916 56.44401166 -41.8125 58.0625 C-46.72721809 59.10411878 -51.62318136 59.04358753 -56.625 59 C-57.99938274 59.01311712 -59.37373941 59.02936109 -60.74804688 59.04882812 C-64.10388493 59.08415274 -67.45665819 59.08756017 -70.8125 59.0625 C-70.1525 57.4125 -69.4925 55.7625 -68.8125 54.0625 C-161.8725 54.0625 -254.9325 54.0625 -350.8125 54.0625 C-350.8125 53.4025 -350.8125 52.7425 -350.8125 52.0625 C-350.17441406 51.71316406 -349.53632813 51.36382812 -348.87890625 51.00390625 C-348.05261719 50.54886719 -347.22632813 50.09382813 -346.375 49.625 C-345.55128906 49.17253906 -344.72757812 48.72007812 -343.87890625 48.25390625 C-341.88941202 47.22587603 -341.88941202 47.22587603 -340.8125 46.0625 C-338.48614783 45.95164906 -336.18919412 45.90512143 -333.86181641 45.90136719 C-333.13497147 45.89640228 -332.40812653 45.89143738 -331.65925598 45.88632202 C-329.24418201 45.87166449 -326.82917373 45.86489232 -324.4140625 45.859375 C-322.74116004 45.85362629 -321.06825762 45.84786853 -319.39535522 45.84210205 C-315.88303316 45.83158169 -312.37073405 45.82574588 -308.85839844 45.82226562 C-304.35327968 45.81678013 -299.84846306 45.79275544 -295.3434391 45.76429367 C-291.88623158 45.74568775 -288.42909709 45.74046278 -284.97184372 45.73892975 C-283.31081872 45.73589781 -281.64979518 45.7278511 -279.98881912 45.71474457 C-277.66630204 45.69772706 -275.34452645 45.69955346 -273.02197266 45.70605469 C-271.98854988 45.69223251 -271.98854988 45.69223251 -270.93424988 45.6781311 C-269.01382446 45.69500732 -269.01382446 45.69500732 -265.8125 46.0625 C-265.33355789 46.5568454 -264.85461578 47.0511908 -264.36116028 47.56051636 C-261.74004539 50.10263082 -258.2824558 49.47801252 -254.82446289 49.45068359 C-253.60449364 49.45856903 -253.60449364 49.45856903 -252.35987854 49.46661377 C-249.66810976 49.47983047 -246.97693118 49.4710691 -244.28515625 49.4609375 C-242.41572455 49.46295795 -240.54629362 49.46586915 -238.67686462 49.46963501 C-234.75691227 49.47406078 -230.83716488 49.46761989 -226.91723633 49.45361328 C-221.89209429 49.43653306 -216.86743333 49.44635358 -211.842309 49.46433067 C-207.98099647 49.47517175 -204.11979795 49.47172047 -200.25848198 49.4639473 C-198.40571473 49.46194557 -196.55293714 49.46440359 -194.70018196 49.47138596 C-192.10981975 49.47900445 -189.52023589 49.46739038 -186.92993164 49.45068359 C-185.78037994 49.45979263 -185.78037994 49.45979263 -184.60760498 49.46908569 C-180.44385752 49.47140959 -180.44385752 49.47140959 -176.87641335 47.55940533 C-174.39568651 45.76019548 -173.17057191 45.69973565 -170.14009094 45.73106384 C-169.20521347 45.73297729 -168.270336 45.73489075 -167.30712891 45.73686218 C-165.7789856 45.76258049 -165.7789856 45.76258049 -164.2199707 45.78881836 C-163.14144333 45.79468964 -162.06291595 45.80056091 -160.95170593 45.80661011 C-158.60866869 45.82026519 -156.26566179 45.84024364 -153.92272377 45.86576653 C-150.21061325 45.90261842 -146.49919364 45.91512188 -142.78691101 45.91981506 C-132.23189289 45.93457682 -121.67773302 45.96964055 -111.12329102 46.0793457 C-104.66682823 46.14469764 -98.21178132 46.16127661 -91.75502586 46.14663887 C-89.29783729 46.15042317 -86.84060489 46.17246049 -84.38375282 46.2133007 C-71.25383032 47.13697249 -71.25383032 47.13697249 -59.3374939 42.90579224 C-57.00474203 40.37954129 -55.38353532 38.10781713 -53.8125 35.0625 C-53.37549271 34.32511093 -52.93848541 33.58772186 -52.48823547 32.82798767 C-50.99024677 30.22190369 -49.97886904 27.67848665 -49.1953125 24.77734375 C-47.40194893 18.1463266 -44.72330852 15.46596708 -38.8125 12.0625 C-26.96831163 5.35324547 -13.83410731 -0.16667599 0 0 Z " fill="#212938" transform="translate(500.8125,164.9375)"/>
<path d="M0 0 C20.64377288 -1.48147418 20.64377288 -1.48147418 26.6875 3.3125 C28.17550467 4.82698162 29.61279297 6.39268262 31 8 C31.82242187 8.80953125 32.64484375 9.6190625 33.4921875 10.453125 C43.42856647 20.54051277 50.14650032 32.77707961 55 46 C55.30679688 46.78890625 55.61359375 47.5778125 55.9296875 48.390625 C57.94172057 53.87101983 58.64803274 59.18647181 59 65 C57.02 65.99 55.04 66.98 53 68 C52.95101562 69.25554687 52.90203125 70.51109375 52.8515625 71.8046875 C52.1711587 87.57052562 52.1711587 87.57052562 50.48046875 94.8671875 C49.96471584 97.15662723 49.60829105 99.42208605 49.3125 101.75 C49.22613281 102.42546875 49.13976562 103.1009375 49.05078125 103.796875 C48.8993316 106.12103702 48.8993316 106.12103702 49.69921875 108.77734375 C50.1168618 113.25209071 48.5799268 115.92966218 46.5 119.8125 C46.13124756 120.52100098 45.76249512 121.22950195 45.38256836 121.95947266 C42.44711401 127.46210954 39.13792153 132.32388399 35 137 C34.32324219 137.80695313 33.64648438 138.61390625 32.94921875 139.4453125 C26.7458358 146.65137369 19.33700944 155.10853901 10 158 C8.68 158 7.36 158 6 158 C3.97787201 158.68053429 3.97787201 158.68053429 1.953125 159.6796875 C1.19 160.03160156 0.426875 160.38351562 -0.359375 160.74609375 C-1.54273438 161.30490234 -1.54273438 161.30490234 -2.75 161.875 C-10.79606701 165.67006161 -17.97686319 168.37596403 -27 168 C-27.66 169.98 -28.32 171.96 -29 174 C-57.42034934 174.88813592 -57.42034934 174.88813592 -68 169 C-68.67477555 167.33659981 -69.34138822 165.66986609 -70 164 C-72.2322702 162.57846934 -72.2322702 162.57846934 -74.875 161.75 C-75.73867188 161.43546875 -76.60234375 161.1209375 -77.4921875 160.796875 C-78.31976563 160.53390625 -79.14734375 160.2709375 -80 160 C-80.72445313 159.75765625 -81.44890625 159.5153125 -82.1953125 159.265625 C-82.79085938 159.17796875 -83.38640625 159.0903125 -84 159 C-84.66 159.66 -85.32 160.32 -86 161 C-94.70979416 160.32112715 -102.58561577 151.30441999 -108 145 C-116 134.09090909 -116 134.09090909 -116 131 C-144.38 131 -172.76 131 -202 131 C-202.66 129.68 -203.32 128.36 -204 127 C-218.23852918 126.90648059 -232.47701061 126.83624975 -246.71578407 126.79275131 C-253.32739538 126.77187449 -259.93880039 126.74355434 -266.55029297 126.69824219 C-272.93045455 126.65478899 -279.31041766 126.63086361 -285.69071579 126.62049103 C-288.12519836 126.61309881 -290.55967004 126.59866366 -292.99406815 126.57707977 C-296.40334824 126.54805385 -299.81180768 126.54404381 -303.22119141 126.54589844 C-304.22820099 126.53151733 -305.23521057 126.51713623 -306.2727356 126.50231934 C-311.95201828 126.49332132 -311.95201828 126.49332132 -316.93731689 128.99504089 C-321.66089887 132.08729313 -326.25413738 131.56595327 -331.78173828 131.53344727 C-332.96302811 131.54206284 -334.14431793 131.55067841 -335.36140442 131.55955505 C-338.59129876 131.57833191 -341.82054444 131.57912004 -345.0504632 131.57023358 C-347.75618905 131.56510661 -350.46182395 131.57243094 -353.16754043 131.57970566 C-359.56001728 131.59669186 -365.95225541 131.59315628 -372.34472656 131.57641602 C-378.91250602 131.55953735 -385.47961875 131.57527256 -392.04732525 131.6076389 C-397.70623532 131.63445754 -403.36493943 131.64157674 -409.02390659 131.63312382 C-412.39459884 131.62822492 -415.76489131 131.6302413 -419.13553238 131.65091133 C-422.90480377 131.66844874 -426.67267772 131.65373299 -430.44189453 131.63110352 C-432.08825142 131.64864182 -432.08825142 131.64864182 -433.76786804 131.66653442 C-441.79848579 131.56908291 -447.79313464 129.40620828 -455 126 C-456.91158344 125.21664574 -458.82758649 124.44388708 -460.75 123.6875 C-461.56984375 123.36136719 -462.3896875 123.03523438 -463.234375 122.69921875 C-463.81703125 122.46847656 -464.3996875 122.23773438 -465 122 C-465 121.67 -465 121.34 -465 121 C-350.82 121 -236.64 121 -119 121 C-119 119.68 -119 118.36 -119 117 C-117.35 116.67 -115.7 116.34 -114 116 C-113.69449219 116.64324219 -113.38898438 117.28648437 -113.07421875 117.94921875 C-102.86016851 138.11837148 -86.52125298 150.61225177 -65.58203125 158.24609375 C-44.27543483 165.1955571 -20.68405804 165.97523451 -0.27392578 155.90576172 C7.11820239 152.04239953 13.83603321 147.65594755 20 142 C20.70382812 141.36449219 21.40765625 140.72898437 22.1328125 140.07421875 C37.39656146 125.59397021 47.67546786 103.21399579 48.26719666 82.08938599 C48.32642452 78.93238558 48.37429946 75.77557702 48.4050293 72.61816406 C48.42644607 70.97374257 48.46035114 69.32942986 48.50756836 67.68554688 C49.06822847 47.90881032 42.86228321 32.24206675 29.421875 17.46484375 C28.95265625 16.98144531 28.4834375 16.49804688 28 16 C27.53078125 15.50628906 27.0615625 15.01257813 26.578125 14.50390625 C23.17263965 11.27235698 20.66292164 10.72233094 16.078125 10.43359375 C12.70494881 9.72979195 10.51442976 7.6506972 7.8984375 5.5 C5.45399269 3.56858682 2.83242252 2.27459014 0 1 C0 0.67 0 0.34 0 0 Z " fill="#9F9F9F" transform="translate(548,188)"/>
<path d="M0 0 C23.43 0 46.86 0 71 0 C71.495 3.96 71.495 3.96 72 8 C73.02897452 10.34188825 73.02897452 10.34188825 74.4375 12.1875 C80.84779585 21.70133966 80.84844382 32.79589251 80 44 C78.75197393 49.30249419 76.89266886 53.69925395 73.8125 58.1875 C71.34127949 61.57613307 71.34127949 61.57613307 71 69 C47.57 69 24.14 69 0 69 C0 64.71 0 60.42 0 56 C18.81 56 37.62 56 57 56 C57 50.39 57 44.78 57 39 C38.19 38.67 19.38 38.34 0 38 C0 25.46 0 12.92 0 0 Z " fill="#282F3D" transform="translate(474,232)"/>
<path d="M0 0 C0.97582031 0.00902344 1.95164062 0.01804688 2.95703125 0.02734375 C4.06111328 0.04474609 4.06111328 0.04474609 5.1875 0.0625 C4.66481534 2.82526177 4.07880413 5.3885876 3.1875 8.0625 C4.1775 8.3925 5.1675 8.7225 6.1875 9.0625 C5.5 11.4375 5.5 11.4375 4.1875 14.0625 C0.46675942 15.91617831 -3.30895413 16.6210006 -7.375 17.375 C-26.89247959 21.46573347 -44.88350083 32.91434426 -57.8125 48.0625 C-59.66011789 50.98537092 -61.39042603 53.91859322 -63.01171875 56.97265625 C-64.8125 59.0625 -64.8125 59.0625 -68.01953125 59.37109375 C-69.40205078 59.21833984 -69.40205078 59.21833984 -70.8125 59.0625 C-70.1525 57.4125 -69.4925 55.7625 -68.8125 54.0625 C-161.8725 54.0625 -254.9325 54.0625 -350.8125 54.0625 C-350.8125 53.4025 -350.8125 52.7425 -350.8125 52.0625 C-350.17441406 51.71316406 -349.53632813 51.36382812 -348.87890625 51.00390625 C-347.63947266 50.32134766 -347.63947266 50.32134766 -346.375 49.625 C-345.13943359 48.94630859 -345.13943359 48.94630859 -343.87890625 48.25390625 C-341.88941202 47.22587603 -341.88941202 47.22587603 -340.8125 46.0625 C-338.48614783 45.95164906 -336.18919412 45.90512143 -333.86181641 45.90136719 C-333.13497147 45.89640228 -332.40812653 45.89143738 -331.65925598 45.88632202 C-329.24418201 45.87166449 -326.82917373 45.86489232 -324.4140625 45.859375 C-322.74116004 45.85362629 -321.06825762 45.84786853 -319.39535522 45.84210205 C-315.88303316 45.83158169 -312.37073405 45.82574588 -308.85839844 45.82226562 C-304.35327968 45.81678013 -299.84846306 45.79275544 -295.3434391 45.76429367 C-291.88623158 45.74568775 -288.42909709 45.74046278 -284.97184372 45.73892975 C-283.31081872 45.73589781 -281.64979518 45.7278511 -279.98881912 45.71474457 C-277.66630204 45.69772706 -275.34452645 45.69955346 -273.02197266 45.70605469 C-271.98854988 45.69223251 -271.98854988 45.69223251 -270.93424988 45.6781311 C-269.01382446 45.69500732 -269.01382446 45.69500732 -265.8125 46.0625 C-265.33355789 46.5568454 -264.85461578 47.0511908 -264.36116028 47.56051636 C-261.74004539 50.10263082 -258.2824558 49.47801252 -254.82446289 49.45068359 C-253.60449364 49.45856903 -253.60449364 49.45856903 -252.35987854 49.46661377 C-249.66810976 49.47983047 -246.97693118 49.4710691 -244.28515625 49.4609375 C-242.41572455 49.46295795 -240.54629362 49.46586915 -238.67686462 49.46963501 C-234.75691227 49.47406078 -230.83716488 49.46761989 -226.91723633 49.45361328 C-221.89209429 49.43653306 -216.86743333 49.44635358 -211.842309 49.46433067 C-207.98099647 49.47517175 -204.11979795 49.47172047 -200.25848198 49.4639473 C-198.40571473 49.46194557 -196.55293714 49.46440359 -194.70018196 49.47138596 C-192.10981975 49.47900445 -189.52023589 49.46739038 -186.92993164 49.45068359 C-185.78037994 49.45979263 -185.78037994 49.45979263 -184.60760498 49.46908569 C-180.44385752 49.47140959 -180.44385752 49.47140959 -176.87641335 47.55940533 C-174.39568651 45.76019548 -173.17057191 45.69973565 -170.14009094 45.73106384 C-169.20521347 45.73297729 -168.270336 45.73489075 -167.30712891 45.73686218 C-165.7789856 45.76258049 -165.7789856 45.76258049 -164.2199707 45.78881836 C-163.14144333 45.79468964 -162.06291595 45.80056091 -160.95170593 45.80661011 C-158.60866869 45.82026519 -156.26566179 45.84024364 -153.92272377 45.86576653 C-150.21061325 45.90261842 -146.49919364 45.91512188 -142.78691101 45.91981506 C-132.23189289 45.93457682 -121.67773302 45.96964055 -111.12329102 46.0793457 C-104.66682823 46.14469764 -98.21178132 46.16127661 -91.75502586 46.14663887 C-89.29783729 46.15042317 -86.84060489 46.17246049 -84.38375282 46.2133007 C-71.25383032 47.13697249 -71.25383032 47.13697249 -59.3374939 42.90579224 C-57.00474203 40.37954129 -55.38353532 38.10781713 -53.8125 35.0625 C-53.37549271 34.32511093 -52.93848541 33.58772186 -52.48823547 32.82798767 C-50.99024677 30.22190369 -49.97886904 27.67848665 -49.1953125 24.77734375 C-47.40194893 18.1463266 -44.72330852 15.46596708 -38.8125 12.0625 C-26.96831163 5.35324547 -13.83410731 -0.16667599 0 0 Z " fill="#B9B9B9" transform="translate(500.8125,164.9375)"/>
<path d="M0 0 C0.92039062 0.32742188 1.84078125 0.65484375 2.7890625 0.9921875 C6.05780017 2.01814166 8.60001253 2.16190417 12 2 C10.52023746 12.28341309 2.66810413 21.40437763 -4 29 C-4.66515625 29.76054687 -5.3303125 30.52109375 -6.015625 31.3046875 C-12.1830309 37.90609604 -19.2773848 42.44632 -27 47 C-27.83273437 47.50660156 -28.66546875 48.01320313 -29.5234375 48.53515625 C-48.21374849 58.96473252 -71.56903632 57.96180051 -91.64990234 52.69335938 C-112.17694338 46.63717856 -129.28489724 33.86553171 -141 16 C-144 10.45535714 -144 10.45535714 -144 8 C-144.66 7.67 -145.32 7.34 -146 7 C-143.525 7.495 -143.525 7.495 -141 8 C-141 8.99 -141 9.98 -141 11 C-140.16190796 10.92144775 -140.16190796 10.92144775 -139.30688477 10.84130859 C-123.22619879 9.53015761 -123.22619879 9.53015761 -118.16015625 12.875 C-116.7730394 14.57894392 -115.4473531 16.3343194 -114.1796875 18.12890625 C-107.18694665 27.33977457 -95.79734456 32.69312097 -85 36 C-84.38125 36.19851563 -83.7625 36.39703125 -83.125 36.6015625 C-79.15831605 37.34531574 -75.05093905 37.28570122 -71.01953125 37.34179688 C-65.79054196 37.55351678 -63.25298427 39.1590065 -59 42 C-52.59074186 42.99080319 -47.49632796 40.54505972 -41.75 38 C-40.81631592 37.59064209 -39.88263184 37.18128418 -38.9206543 36.75952148 C-31.86714979 33.57631002 -25.82150681 30.15952945 -20 25 C-18.75089844 23.91332031 -18.75089844 23.91332031 -17.4765625 22.8046875 C-10.29084152 16.10538456 -5.18080601 8.26724363 0 0 Z " fill="#404F6C" transform="translate(578,296)"/>
<path d="M0 0 C23.43 0 46.86 0 71 0 C71 22.77 71 45.54 71 69 C66.38 69 61.76 69 57 69 C57 50.19 57 31.38 57 12 C42.81 12 28.62 12 14 12 C14 30.81 14 49.62 14 69 C9.38 69 4.76 69 0 69 C0 46.23 0 23.46 0 0 Z " fill="#959595" transform="translate(141,231)"/>
<path d="M0 0 C20.64377288 -1.48147418 20.64377288 -1.48147418 26.6875 3.3125 C28.17550467 4.82698162 29.61279297 6.39268262 31 8 C31.82242188 8.80953125 32.64484375 9.6190625 33.4921875 10.453125 C43.42856647 20.54051277 50.14650032 32.77707961 55 46 C55.30679688 46.78890625 55.61359375 47.5778125 55.9296875 48.390625 C57.94172057 53.87101983 58.64803274 59.18647181 59 65 C56.03 66.485 56.03 66.485 53 68 C52.95101562 69.25554687 52.90203125 70.51109375 52.8515625 71.8046875 C52.1711587 87.57052562 52.1711587 87.57052562 50.48046875 94.8671875 C49.96471584 97.15662723 49.60829105 99.42208605 49.3125 101.75 C49.22613281 102.42546875 49.13976562 103.1009375 49.05078125 103.796875 C48.8993316 106.12103702 48.8993316 106.12103702 49.69921875 108.77734375 C50.1168618 113.25209071 48.5799268 115.92966218 46.5 119.8125 C46.13124756 120.52100098 45.76249512 121.22950195 45.38256836 121.95947266 C42.44711401 127.46210954 39.13792153 132.32388399 35 137 C34.32324219 137.80695313 33.64648438 138.61390625 32.94921875 139.4453125 C26.7458358 146.65137369 19.33700944 155.10853901 10 158 C8.68 158 7.36 158 6 158 C3.97787201 158.68053429 3.97787201 158.68053429 1.953125 159.6796875 C1.19 160.03160156 0.426875 160.38351562 -0.359375 160.74609375 C-1.14828125 161.11863281 -1.9371875 161.49117187 -2.75 161.875 C-10.79606701 165.67006161 -17.97686319 168.37596403 -27 168 C-27.99 170.97 -27.99 170.97 -29 174 C-57.42034934 174.88813592 -57.42034934 174.88813592 -68 169 C-68.67477555 167.33659981 -69.34138822 165.66986609 -70 164 C-72.2322702 162.57846934 -72.2322702 162.57846934 -74.875 161.75 C-75.73867188 161.43546875 -76.60234375 161.1209375 -77.4921875 160.796875 C-78.31976563 160.53390625 -79.14734375 160.2709375 -80 160 C-80.72445312 159.75765625 -81.44890625 159.5153125 -82.1953125 159.265625 C-82.79085937 159.17796875 -83.38640625 159.0903125 -84 159 C-84.66 159.66 -85.32 160.32 -86 161 C-91.96939196 160.53472401 -95.63575853 156.75442322 -100 153 C-100.66257812 152.43410156 -101.32515625 151.86820313 -102.0078125 151.28515625 C-106.48825903 147.14028973 -109.96064421 142.46386537 -113.375 137.4375 C-113.80417725 136.81230469 -114.23335449 136.18710937 -114.67553711 135.54296875 C-117.36824973 131.44879839 -118.88184138 127.77367719 -120 123 C-119.34 123 -118.68 123 -118 123 C-118.495 120.03 -118.495 120.03 -119 117 C-116.525 116.505 -116.525 116.505 -114 116 C-113.69449219 116.64324219 -113.38898438 117.28648437 -113.07421875 117.94921875 C-102.86016851 138.11837148 -86.52125298 150.61225177 -65.58203125 158.24609375 C-44.27543483 165.1955571 -20.68405804 165.97523451 -0.27392578 155.90576172 C7.11820239 152.04239953 13.83603321 147.65594755 20 142 C20.70382812 141.36449219 21.40765625 140.72898437 22.1328125 140.07421875 C37.39656146 125.59397021 47.67546786 103.21399579 48.26719666 82.08938599 C48.32642452 78.93238558 48.37429946 75.77557702 48.4050293 72.61816406 C48.42644607 70.97374257 48.46035114 69.32942986 48.50756836 67.68554688 C49.06822847 47.90881032 42.86228321 32.24206675 29.421875 17.46484375 C28.95265625 16.98144531 28.4834375 16.49804688 28 16 C27.53078125 15.50628906 27.0615625 15.01257813 26.578125 14.50390625 C23.17263965 11.27235698 20.66292164 10.72233094 16.078125 10.43359375 C12.70494881 9.72979195 10.51442976 7.6506972 7.8984375 5.5 C5.45399269 3.56858682 2.83242252 2.27459014 0 1 C0 0.67 0 0.34 0 0 Z " fill="#CDCECF" transform="translate(548,188)"/>
<path d="M0 0 C23.1 0 46.2 0 70 0 C70 12.54 70 25.08 70 38 C53.17 38 36.34 38 19 38 C19 33.38 19 28.76 19 24 C31.87 24 44.74 24 58 24 C58 20.04 58 16.08 58 12 C43.15 12 28.3 12 13 12 C13 30.81 13 49.62 13 69 C8.71 69 4.42 69 0 69 C0 46.23 0 23.46 0 0 Z " fill="#989898" transform="translate(240,231)"/>
<path d="M0 0 C0 0.33 0 0.66 0 1 C-3.96 1.66 -7.92 2.32 -12 3 C-10.9584375 2.855625 -9.916875 2.71125 -8.84375 2.5625 C18.45691997 -1.04954913 18.45691997 -1.04954913 31 4 C31.97582031 4.36351562 32.95164062 4.72703125 33.95703125 5.1015625 C40.68496632 7.72503403 47.80498272 10.80498272 53 16 C54.175625 16.04125 55.35125 16.0825 56.5625 16.125 C64.03099114 17.01695883 68.49098132 23.22634089 73.0625 28.6875 C84.01477483 42.91039521 88.70873601 56.07077403 88.52148438 73.83447266 C88.50014996 76.23313934 88.52132167 78.62877092 88.546875 81.02734375 C88.56308287 91.55111201 87.03843378 100.93302521 84 111 C83.34 111 82.68 111 82 111 C82.185625 109.6696875 82.185625 109.6696875 82.375 108.3125 C82.46394531 107.65765625 82.55289063 107.0028125 82.64453125 106.328125 C82.89210372 104.70666136 83.18476029 103.09171275 83.51171875 101.484375 C85.66250917 90.07450808 85.18380972 78.56445948 85 67 C84.34 67 83.68 67 83 67 C82.73316406 65.82824219 82.46632813 64.65648437 82.19140625 63.44921875 C78.29117843 47.92678975 66.83721181 27.67596347 53 19 C50.20403449 18.72364595 50.20403449 18.72364595 48 20 C47.01 21.485 47.01 21.485 46 23 C42.49302898 22.30522272 39.66100054 20.89847877 36.5 19.25 C31.2753546 16.57036592 25.99278793 14.33196042 20.49609375 12.2734375 C18 11 18 11 16.52734375 8.9296875 C13.79859126 5.48210762 9.773073 5.83173242 5.625 5.30859375 C-2.30172405 4.6337972 -10.16163088 4.54169877 -18 6 C-17.7525 7.0209375 -17.7525 7.0209375 -17.5 8.0625 C-16.92923028 11.41577212 -16.96799885 14.60387785 -17 18 C-17.83402344 18.36351562 -18.66804688 18.72703125 -19.52734375 19.1015625 C-26.47584589 22.20570435 -32.88489837 25.46018824 -39 30 C-39.56332031 30.40992188 -40.12664062 30.81984375 -40.70703125 31.2421875 C-43.56883986 33.45918354 -45.26605024 35.4695023 -46.93359375 38.6015625 C-48.68791065 41.10478492 -49.56220702 41.88681226 -52.55810547 42.66137695 C-55.66077996 42.91383695 -58.69990361 42.96982385 -61.8125 42.9375 C-62.88693359 42.95361328 -63.96136719 42.96972656 -65.06835938 42.98632812 C-67.71353758 43.02159717 -70.35481915 43.02510745 -73 43 C-64.0516223 23.67569405 -45.31534447 10.71889001 -26 3 C-22.36589007 1.77975552 -18.74572404 0.80677133 -15 0 C-13.453125 -0.37125 -13.453125 -0.37125 -11.875 -0.75 C-7.83891327 -1.10096406 -3.99738203 -0.57739963 0 0 Z " fill="#3F4E68" transform="translate(509,181)"/>
<path d="M0 0 C23.1 0 46.2 0 70 0 C70 3.96 70 7.92 70 12 C52.18 12 34.36 12 16 12 C16 16.29 16 20.58 16 25 C33.82 25 51.64 25 70 25 C70 28.96 70 32.92 70 37 C46.9 37 23.8 37 0 37 C0 24.79 0 12.58 0 0 Z " fill="#BBBBBD" transform="translate(474,232)"/>
<path d="M0 0 C4.29 0 8.58 0 13 0 C13 22.77 13 45.54 13 69 C-10.43 69 -33.86 69 -58 69 C-58 61.41 -58 53.82 -58 46 C-53.05 46 -48.1 46 -43 46 C-43 48.97 -43 51.94 -43 55 C-28.81 55 -14.62 55 0 55 C0 36.85 0 18.7 0 0 Z " fill="#BBBBBB" transform="translate(100,232)"/>
<path d="M0 0 C0.33 0 0.66 0 1 0 C1 8.91 1 17.82 1 27 C24.1 27 47.2 27 71 27 C71 27.33 71 27.66 71 28 C67.04 28.33 63.08 28.66 59 29 C59 29.33 59 29.66 59 30 C62.96 30.33 66.92 30.66 71 31 C71 31.33 71 31.66 71 32 C66.71 32 62.42 32 58 32 C58 36.29 58 40.58 58 45 C39.19 45 20.38 45 1 45 C0.67 45.66 0.34 46.32 0 47 C-0.81604999 45.0848421 -1.62770632 43.16781166 -2.4375 41.25 C-2.88996094 40.18265625 -3.34242188 39.1153125 -3.80859375 38.015625 C-7.87890782 27.71305955 -7.31118414 15.24824058 -3.0703125 5.1015625 C-2 3 -2 3 0 0 Z " fill="#232938" transform="translate(473,243)"/>
<path d="M0 0 C5.94 0 11.88 0 18 0 C22.60364107 9.12042099 27.10915003 18.2752566 31.5 27.5 C36.46719574 37.93145267 41.57010889 48.28432956 46.82421875 58.57421875 C47.65373047 60.20810547 47.65373047 60.20810547 48.5 61.875 C48.9846875 62.82117188 49.469375 63.76734375 49.96875 64.7421875 C51 67 51 67 51 69 C45.39 69 39.78 69 34 69 C33.46632813 67.84886719 32.93265625 66.69773437 32.3828125 65.51171875 C28.03180431 56.19180187 23.49846013 47.00875015 18.66918945 37.92749023 C12.04581972 25.46792815 5.91258628 12.81060361 0 0 Z " fill="#B8B8B8" transform="translate(328,232)"/>
<path d="M0 0 C4.29 0 8.58 0 13 0 C13 8.25 13 16.5 13 25 C-10.1 25 -33.2 25 -57 25 C-57 20.71 -57 16.42 -57 12 C-38.19 12 -19.38 12 0 12 C0 8.04 0 4.08 0 0 Z " fill="#BBBCBD" transform="translate(531,276)"/>
<path d="M0 0 C4.62 0 9.24 0 14 0 C14 23.1 14 46.2 14 70 C9.38 70 4.76 70 0 70 C0 46.9 0 23.8 0 0 Z " fill="#BDBEBD" transform="translate(436,231)"/>
<path d="M0 0 C2.52292227 0.19284727 4.93660854 0.52324191 7.4375 0.9375 C6.01811034 5.64413475 4.04452138 9.87189971 1.7265625 14.1875 C1.17957451 15.21870972 1.17957451 15.21870972 0.62153625 16.27075195 C-0.56021759 18.49548 -1.74867165 20.71654556 -2.9375 22.9375 C-3.75215334 24.467298 -4.56652361 25.99724676 -5.38061523 27.52734375 C-11.38798873 38.80347373 -17.46601658 50.04078781 -23.63305664 61.23046875 C-24.29919312 62.45390617 -24.93951735 63.69153469 -25.5625 64.9375 C-26.2225 64.9375 -26.8825 64.9375 -27.5625 64.9375 C-28.76724943 62.54903168 -29.95114958 60.15359848 -31.125 57.75 C-31.46724609 57.07646484 -31.80949219 56.40292969 -32.16210938 55.70898438 C-32.48115234 55.04833984 -32.80019531 54.38769531 -33.12890625 53.70703125 C-33.57665405 52.80368042 -33.57665405 52.80368042 -34.03344727 51.88208008 C-35.37641618 46.94587915 -32.62185582 42.84304859 -30.28125 38.6328125 C-29.95213623 38.03590103 -29.62302246 37.43898956 -29.28393555 36.82398987 C-27.48831557 33.57759727 -25.66074041 30.34930548 -23.83398438 27.12036133 C-23.46793091 26.4730455 -23.10187744 25.82572968 -22.72473145 25.15879822 C-21.99432564 23.86768699 -21.26280686 22.57720473 -20.53015137 21.28736877 C-18.56800725 17.81061044 -16.73905178 14.31395564 -15.0625 10.69140625 C-11.38723857 3.0285949 -8.65227303 -0.20632054 0 0 Z " fill="#B9B9B9" transform="translate(407.5625,228.0625)"/>
<path d="M0 0 C23.1 0 46.2 0 70 0 C70 3.96 70 7.92 70 12 C52.18 12 34.36 12 16 12 C16 16.29 16 20.58 16 25 C15.67 25 15.34 25 15 25 C15 21.7 15 18.4 15 15 C13.87851562 15.01740234 13.87851562 15.01740234 12.734375 15.03515625 C11.74953125 15.04417969 10.7646875 15.05320313 9.75 15.0625 C8.28820312 15.07990234 8.28820312 15.07990234 6.796875 15.09765625 C4 15 4 15 0 14 C0 9.38 0 4.76 0 0 Z " fill="#99999A" transform="translate(474,232)"/>
<path d="M0 0 C11.64311246 -1.07396206 11.64311246 -1.07396206 14.8359375 1.453125 C16.0625 3.3125 16.0625 3.3125 17.078125 5.25 C18.26675286 7.50637832 19.94471207 8.55368627 22 10 C22 10.66 22 11.32 22 12 C22.58845703 12.12455566 23.17691406 12.24911133 23.78320312 12.37744141 C27.34752765 13.37843563 30.34502885 15.48514658 33.5 17.375 C39.3609852 20.79396376 44.72192849 23.18028337 51.44921875 24.46484375 C54.21947063 25.04604514 56.49158749 25.67376163 59 27 C60.80919131 29.8718968 61.76964557 32.81019221 63 36 C58.71 35.67 54.42 35.34 50 35 C50 34.34 50 33.68 50 33 C49.113125 33.020625 48.22625 33.04125 47.3125 33.0625 C44 33 44 33 41.25 32.4375 C38.97586562 31.75802104 38.97586562 31.75802104 37 33 C34.47492536 31.98570584 32.11028701 30.91096813 29.6875 29.6875 C28.97561523 29.32938232 28.26373047 28.97126465 27.53027344 28.60229492 C18.66372245 23.98224077 9.90293382 18.20081248 4 10 C3.63837971 8.67405895 3.30271961 7.34061543 3 6 C2.01268258 4.65724831 1.01405257 3.32267727 0 2 C0 1.34 0 0.68 0 0 Z " fill="#536486" transform="translate(442,313)"/>
<path d="M0 0 C0 5.94 0 11.88 0 18 C-16.5 18 -33 18 -50 18 C-50 13.71 -50 9.42 -50 5 C-37.13 5 -24.26 5 -11 5 C-11 3.68 -11 2.36 -11 1 C-9 0 -9 0 0 0 Z " fill="#BDBDBD" transform="translate(309,250)"/>
<path d="M0 0 C0.66 0 1.32 0 2 0 C2.34171006 1.37294222 2.67291117 2.74850118 3 4.125 C3.185625 4.89070313 3.37125 5.65640625 3.5625 6.4453125 C4.34267614 11.00098386 4.68380392 13.83706816 2.27734375 17.9296875 C1.50519531 18.90164063 0.73304688 19.87359375 -0.0625 20.875 C-0.87976563 21.90882813 -1.69703125 22.94265625 -2.5390625 24.0078125 C-3.35117187 24.99523437 -4.16328125 25.98265625 -5 27 C-5.68835938 27.84304688 -6.37671875 28.68609375 -7.0859375 29.5546875 C-10.43714048 33.52805474 -10.43714048 33.52805474 -12 35 C-12.66 35 -13.32 35 -14 35 C-14 35.66 -14 36.32 -14 37 C-18.40385692 41.29900319 -21.30150064 42.24176116 -27.4375 42.375 C-34.99004868 42.63293122 -40.52900839 44.98933928 -47.2109375 48.2109375 C-58.12167833 53.46304633 -58.12167833 53.46304633 -64 53.1875 C-64.763125 53.16042969 -65.52625 53.13335937 -66.3125 53.10546875 C-66.869375 53.07066406 -67.42625 53.03585937 -68 53 C-68.33 52.34 -68.66 51.68 -69 51 C-68.34515625 50.84144531 -67.6903125 50.68289063 -67.015625 50.51953125 C-49.12615366 45.94609295 -31.63312828 37.55928598 -18 25 C-17.3709375 24.45085937 -16.741875 23.90171875 -16.09375 23.3359375 C-9.39558773 17.1553605 -3.02498508 8.6108041 0 0 Z " fill="#536587" transform="translate(594,311)"/>
<path d="M0 0 C4.29 0 8.58 0 13 0 C13 15.51 13 31.02 13 47 C8.71 47.66 4.42 48.32 0 49 C0 32.83 0 16.66 0 0 Z " fill="#999999" transform="translate(100,232)"/>
<path d="M0 0 C0.93809509 0.00566483 1.87619019 0.01132965 2.8427124 0.01716614 C3.86985855 0.03370743 4.8970047 0.05024872 5.95527649 0.06729126 C7.0383609 0.07675278 8.12144531 0.08621429 9.23735046 0.09596252 C12.82489192 0.12969728 16.41209184 0.17779753 19.99946594 0.22598267 C22.48381655 0.25214387 24.96817671 0.27741135 27.45254517 0.30181885 C33.32805847 0.3617057 39.20341186 0.43062017 45.07877237 0.50388968 C52.42398645 0.59493754 59.76933094 0.6720027 67.11470032 0.74942017 C80.21835602 0.88922318 93.32183636 1.04148964 106.42524719 1.20254517 C105.43524719 3.18254517 104.44524719 5.16254517 103.42524719 7.20254517 C66.46524719 6.87254517 29.50524719 6.54254517 -8.57475281 6.20254517 C-7.21158983 0.74989325 -5.2601058 -0.05943622 0 0 Z " fill="#BABABB" transform="translate(330.5747528076172,210.79745483398438)"/>
<path d="M0 0 C0.97582031 0.00902344 1.95164062 0.01804688 2.95703125 0.02734375 C4.06111328 0.04474609 4.06111328 0.04474609 5.1875 0.0625 C4.66481534 2.82526177 4.07880413 5.3885876 3.1875 8.0625 C4.1775 8.3925 5.1675 8.7225 6.1875 9.0625 C5.8575 9.7225 5.5275 10.3825 5.1875 11.0625 C4.52105469 11.03929687 3.85460937 11.01609375 3.16796875 10.9921875 C-15.27214675 10.6311223 -32.31212757 17.03303644 -46.375 29 C-48.8125 31.0625 -48.8125 31.0625 -50.8125 31.0625 C-48.64834992 18.32493096 -48.64834992 18.32493096 -43.2734375 14.4921875 C-32.82769017 8.42370572 -22.63832826 3.79867203 -10.8125 1.0625 C-9.9771875 0.8665625 -9.141875 0.670625 -8.28125 0.46875 C-5.48061028 0.00788524 -2.83668182 -0.03417689 0 0 Z " fill="#9C9C9C" transform="translate(500.8125,164.9375)"/>
<path d="M0 0 C0 14.52 0 29.04 0 44 C-3.96 44 -7.92 44 -12 44 C-12 30.14 -12 16.28 -12 2 C-4 0 -4 0 0 0 Z " fill="#BFBFBF" transform="translate(252,256)"/>
<path d="M0 0 C11.17019852 1.00613921 16.04308913 5.33682155 23.0625 13.6875 C34.01477483 27.91039521 38.70873601 41.07077403 38.52148438 58.83447266 C38.50014996 61.23313934 38.52132167 63.62877092 38.546875 66.02734375 C38.56308287 76.55111201 37.03843378 85.93302521 34 96 C33.34 96 32.68 96 32 96 C32.185625 94.6696875 32.185625 94.6696875 32.375 93.3125 C32.50841797 92.33023438 32.50841797 92.33023438 32.64453125 91.328125 C32.89210372 89.70666136 33.18476029 88.09171275 33.51171875 86.484375 C35.66250917 75.07450808 35.18380972 63.56445948 35 52 C34.34 52 33.68 52 33 52 C32.73316406 50.82824219 32.46632813 49.65648437 32.19140625 48.44921875 C28.38658305 33.30648844 18.31001849 16.79684214 6.375 6.6875 C5.80523438 6.19636719 5.23546875 5.70523438 4.6484375 5.19921875 C2.89611708 3.7973845 2.89611708 3.7973845 0 3 C0 2.01 0 1.02 0 0 Z " fill="#3F4249" transform="translate(559,196)"/>
<path d="M0 0 C0.33 0 0.66 0 1 0 C1 6.6 1 13.2 1 20 C4.63 19.67 8.26 19.34 12 19 C12 31.54 12 44.08 12 57 C8.04 57 4.08 57 0 57 C0 38.19 0 19.38 0 0 Z " fill="#BEBEBE" transform="translate(199,243)"/>
<path d="M0 0 C11.88 0 23.76 0 36 0 C36 4.29 36 8.58 36 13 C24.12 13 12.24 13 0 13 C0 8.71 0 4.42 0 0 Z " fill="#929292" transform="translate(159,257)"/>
<path d="M0 0 C5.94 0 11.88 0 18 0 C20.0048279 3.95595506 22.00405061 7.91456889 24 11.875 C24.57234375 13.00292969 25.1446875 14.13085938 25.734375 15.29296875 C26.27578125 16.36933594 26.8171875 17.44570313 27.375 18.5546875 C28.12910156 20.04718018 28.12910156 20.04718018 28.8984375 21.56982422 C30 24 30 24 30 26 C27.20807795 26.05380578 24.4171859 26.09357669 21.625 26.125 C20.8309375 26.14175781 20.036875 26.15851563 19.21875 26.17578125 C17.14507985 26.19335473 15.07116759 26.10335168 13 26 C10.84686558 23.84686558 10.00727919 21.83305983 8.86083984 19.05029297 C7.29982312 15.33236373 5.53884705 11.70582271 3.8125 8.0625 C2.554375 5.401875 1.29625 2.74125 0 0 Z " fill="#B9B9B9" transform="translate(287,275)"/>
<path d="M0 0 C1.36689972 -0.01475121 1.36689972 -0.01475121 2.76141357 -0.02980042 C3.74860382 -0.02013245 4.73579407 -0.01046448 5.75289917 -0.00050354 C7.32684448 -0.00860802 7.32684448 -0.00860802 8.93258667 -0.01687622 C12.39755538 -0.02937394 15.86169506 -0.01286698 19.32662964 0.00511169 C21.73368371 0.00495675 24.14073804 0.00346862 26.54779053 0.0007019 C31.5899052 -0.00068248 36.63173555 0.01188497 41.67379761 0.03465271 C48.14505372 0.06306757 54.61583843 0.06029211 61.08712959 0.0475626 C66.05586799 0.04061757 71.02449687 0.04838079 75.99322128 0.06081963 C78.37990779 0.0653434 80.76660601 0.06566288 83.15329361 0.06175423 C86.48361699 0.05885282 89.81328365 0.07529724 93.14352417 0.09715271 C94.13476288 0.09265106 95.12600159 0.08814941 96.14727783 0.08351135 C97.50571808 0.0983683 97.50571808 0.0983683 98.89160156 0.11352539 C99.67877123 0.11595529 100.4659409 0.11838518 101.27696419 0.12088871 C103.82180047 0.59489142 104.72905207 1.50211294 106.31881714 3.50120544 C106.31881714 3.83120544 106.31881714 4.16120544 106.31881714 4.50120544 C68.03881714 4.50120544 29.75881714 4.50120544 -9.68118286 4.50120544 C-4.05602273 0.00107734 -4.05602273 0.00107734 0 0 Z " fill="#313846" transform="translate(238.68118286132813,313.49879455566406)"/>
<path d="M0 0 C0 9.57 0 19.14 0 29 C-4.29 29 -8.58 29 -13 29 C-13 20.09 -13 11.18 -13 2 C-7 0 -7 0 0 0 Z " fill="#BFBFBF" transform="translate(155,271)"/>
<path d="M0 0 C0.65742187 0.5259375 1.31484375 1.051875 1.9921875 1.59375 C4.35399923 3.24793721 5.89848882 3.47783006 8.75 3.6875 C9.54921875 3.75324219 10.3484375 3.81898438 11.171875 3.88671875 C11.77515625 3.92410156 12.3784375 3.96148437 13 4 C13 4.33 13 4.66 13 5 C-10.1 5 -33.2 5 -57 5 C-57 4.67 -57 4.34 -57 4 C-55.77023437 3.94392578 -55.77023437 3.94392578 -54.515625 3.88671875 C-53.43796875 3.82097656 -52.3603125 3.75523437 -51.25 3.6875 C-50.18265625 3.62949219 -49.1153125 3.57148438 -48.015625 3.51171875 C-44.75045737 2.95765533 -43.47389554 2.11367092 -41 0 C-28.6620157 -5.83250167 -12.23837444 -6.60518765 0 0 Z " fill="#292E3B" transform="translate(531,227)"/>
<path d="M0 0 C17.49 0 34.98 0 53 0 C50.71243455 3.43134818 49.33315321 4.00454699 45.625 5.625 C44.66851563 6.05039062 43.71203125 6.47578125 42.7265625 6.9140625 C32.81166419 10.86297615 19.3506646 10.24379074 9.28125 6.99609375 C5.71538494 5.43908075 2.97252767 3.51013448 0 1 C0 0.67 0 0.34 0 0 Z " fill="#262A38" transform="translate(484,301)"/>
<path d="M0 0 C0.66 0 1.32 0 2 0 C10.09073028 20.73567667 10.09073028 20.73567667 9.9375 27.9375 C9 30 9 30 6.44140625 31.12890625 C5.63574219 31.41636719 4.83007812 31.70382813 4 32 C3.95101562 33.25554687 3.90203125 34.51109375 3.8515625 35.8046875 C3.48082857 44.38293989 3.05872421 52.62785486 1 61 C-0.485 61.495 -0.485 61.495 -2 62 C-2.33 62.99 -2.66 63.98 -3 65 C-2.07404588 58.38604201 -2.07404588 58.38604201 -1.47753906 55.27612305 C-0.91409227 51.41063605 -0.81914222 47.60445427 -0.796875 43.70703125 C-0.79117493 42.92035568 -0.78547485 42.13368011 -0.77960205 41.32316589 C-0.77019307 39.66329271 -0.76363447 38.0034012 -0.75976562 36.34350586 C-0.75009602 33.83738553 -0.719049 31.33209899 -0.6875 28.82617188 C-0.63160921 20.1166314 -0.92613925 12.28389246 -4 4 C-2.68 3.34 -1.36 2.68 0 2 C0 1.34 0 0.68 0 0 Z " fill="#CBCBCD" transform="translate(597,224)"/>
<path d="M0 0 C4.95 0 9.9 0 15 0 C15 2.97 15 5.94 15 9 C29.19 9 43.38 9 58 9 C58 9.33 58 9.66 58 10 C57.2064209 10.0093457 56.4128418 10.01869141 55.59521484 10.02832031 C39.4842044 10.26541785 24.00085816 11.01178374 8.22460938 14.64868164 C6 15 6 15 0 15 C0 10.05 0 5.1 0 0 Z " fill="#9A9A9A" transform="translate(42,278)"/>
<path d="M0 0 C5.94 0 11.88 0 18 0 C19.155 2.26875 20.31 4.5375 21.5 6.875 C21.86544922 7.58769043 22.23089844 8.30038086 22.60742188 9.03466797 C25 13.77777778 25 13.77777778 25 16 C16.585 16.495 16.585 16.495 8 17 C4.04 8.585 4.04 8.585 0 0 Z " fill="#969696" transform="translate(328,232)"/>
<path d="M0 0 C1.48831242 0.00667405 2.97660807 0.01863442 4.46484375 0.03515625 C5.22345703 0.03966797 5.98207031 0.04417969 6.76367188 0.04882812 C8.64326246 0.06064945 10.52281274 0.07858547 12.40234375 0.09765625 C11.20456754 3.92943107 9.860774 7.4052826 7.90234375 10.91015625 C7.47953125 11.67972656 7.05671875 12.44929687 6.62109375 13.2421875 C5.40234375 15.09765625 5.40234375 15.09765625 3.40234375 16.09765625 C0.68474267 16.16947446 -2.00625013 16.19065131 -4.72265625 16.16015625 C-5.47675781 16.15564453 -6.23085938 16.15113281 -7.0078125 16.14648438 C-8.87112752 16.13469124 -10.7344018 16.11675567 -12.59765625 16.09765625 C-11.28734189 13.61731176 -9.97452157 11.13835275 -8.66015625 8.66015625 C-8.28697266 7.95310547 -7.91378906 7.24605469 -7.52929688 6.51757812 C-4.12730899 0.11203336 -4.12730899 0.11203336 0 0 Z " fill="#939393" transform="translate(402.59765625,228.90234375)"/>
<path d="M0 0 C29.37 0 58.74 0 89 0 C85.70258831 3.29741169 84.76457392 3.35346038 80.31820679 3.40658569 C79.16090561 3.39747665 79.16090561 3.39747665 77.98022461 3.38818359 C76.75543648 3.39606903 76.75543648 3.39606903 75.50590515 3.40411377 C72.80452397 3.41732756 70.10373102 3.40857176 67.40234375 3.3984375 C65.52812079 3.40045765 63.6538986 3.40336859 61.77967834 3.40713501 C57.8513338 3.41156006 53.92319383 3.40512074 49.99487305 3.39111328 C44.95159877 3.3740095 39.908803 3.38386896 34.86554623 3.40183067 C30.99573641 3.41265357 27.12604069 3.40922927 23.25622749 3.4014473 C21.39622504 3.39944176 19.53621233 3.40191691 17.67622185 3.40888596 C15.08066087 3.41647726 12.48588325 3.40492991 9.89038086 3.38818359 C8.73004333 3.39729263 8.73004333 3.39729263 7.54626465 3.40658569 C5.4092865 3.38095093 5.4092865 3.38095093 2 3 C1.34 2.01 0.68 1.02 0 0 Z " fill="#3B445A" transform="translate(236,212)"/>
<path d="M0 0 C4.62 0 9.24 0 14 0 C14 4.62 14 9.24 14 14 C9.71 14 5.42 14 1 14 C1 32.48 1 50.96 1 70 C0.67 70 0.34 70 0 70 C0 46.9 0 23.8 0 0 Z " fill="#959696" transform="translate(436,231)"/>
<path d="M0 0 C3.09171852 -0.54105074 5.20907052 -0.50287492 7.8984375 1.20703125 C19.56805166 11.0547096 30.1578777 25.80756441 33 41 C33.41718088 46.99970281 33.2401514 52.9962149 33 59 C32.67 59 32.34 59 32 59 C31.90203125 58.28457031 31.8040625 57.56914062 31.703125 56.83203125 C28.97618685 38.66027961 22.30602849 23.81526236 9.3984375 10.6015625 C8 9 8 9 8 7 C7.4225 6.731875 6.845 6.46375 6.25 6.1875 C3.94449957 4.97070811 1.97943808 3.69666121 0 2 C0 1.34 0 0.68 0 0 Z " fill="#576684" transform="translate(564,198)"/>
<path d="M0 0 C4.53481282 -0.12465653 9.06860416 -0.2148274 13.60473633 -0.2746582 C15.1439758 -0.29962755 16.68309885 -0.33361614 18.22192383 -0.37719727 C27.10945227 -0.62239036 34.67079417 -0.79722273 42 5 C38.90708568 6.7966915 36.64809591 7.25612772 33.0859375 7.265625 C31.69761719 7.26949219 31.69761719 7.26949219 30.28125 7.2734375 C29.3221875 7.26570313 28.363125 7.25796875 27.375 7.25 C26.40820312 7.25773437 25.44140625 7.26546875 24.4453125 7.2734375 C23.52234375 7.27085937 22.599375 7.26828125 21.6484375 7.265625 C20.80458496 7.26336914 19.96073242 7.26111328 19.09130859 7.25878906 C17 7 17 7 15 5 C11.94578426 4.69238115 8.91567581 4.62107517 5.84765625 4.5390625 C3 4 3 4 1.32202148 1.96630859 C0.66762085 0.99298584 0.66762085 0.99298584 0 0 Z " fill="#AAAAAA" transform="translate(45,309)"/>
<path d="M0 0 C-1.46880347 2.93760694 -3.61333764 3.37692316 -6.5625 4.75 C-11.26104576 7.02402926 -15.2031479 9.50982037 -19.26171875 12.76171875 C-21.64101276 14.45663156 -24.24400938 15.08133646 -27 16 C-29.70848923 18.37505218 -29.70848923 18.37505218 -32 21 C-32.49886719 21.46277344 -32.99773437 21.92554688 -33.51171875 22.40234375 C-35.18362443 24.19711914 -36.08649921 25.90898651 -37.125 28.125 C-38.91666667 31.91666667 -38.91666667 31.91666667 -40 33 C-34.39 33.33 -28.78 33.66 -23 34 C-23 34.33 -23 34.66 -23 35 C-30.59 35.33 -38.18 35.66 -46 36 C-38.9779008 21.9558016 -27.4259609 11.1023207 -14 3 C-12.989375 2.38125 -11.97875 1.7625 -10.9375 1.125 C-7.07027146 -0.35606625 -4.12202545 -0.21320821 0 0 Z " fill="#3E454E" transform="translate(482,188)"/>
<path d="M0 0 C0.66 0 1.32 0 2 0 C0.01902536 7.08379938 -4.20387138 11.57598704 -9 17 C-9.69351563 17.79019531 -10.38703125 18.58039063 -11.1015625 19.39453125 C-18.4926884 27.29777636 -28.09959553 33.64546525 -38 38 C-39.32 38 -40.64 38 -42 38 C-42 37.01 -42 36.02 -42 35 C-40.865625 34.46375 -39.73125 33.9275 -38.5625 33.375 C-24.77562967 26.46875036 -8.31928144 15.84328144 -1.09375 1.9140625 C-0.7328125 1.28242188 -0.371875 0.65078125 0 0 Z " fill="#414A5B" transform="translate(583,308)"/>
<path d="M0 0 C5.43148733 0.36823643 9.20812462 1.24467166 14 4 C14 6.64 14 9.28 14 12 C12.97261719 11.73445312 11.94523438 11.46890625 10.88671875 11.1953125 C2.96438278 9.1687575 -4.91909836 7.30116213 -13 6 C-10.624625 2.1610875 -10.624625 2.1610875 -7.7734375 1.42578125 C-6.98195313 1.38839844 -6.19046875 1.35101563 -5.375 1.3125 C-2.3882952 1.37230137 -2.3882952 1.37230137 0 0 Z " fill="#9D9E9E" transform="translate(530,173)"/>
<path d="M0 0 C1.20446777 0.01047363 2.40893555 0.02094727 3.64990234 0.03173828 C5.60283203 0.04140625 5.60283203 0.04140625 7.59521484 0.05126953 C8.9754258 0.06798149 10.35563413 0.08491139 11.73583984 0.10205078 C13.12385436 0.11208072 14.51187574 0.12120655 15.89990234 0.12939453 C19.3037201 0.15303215 22.70719491 0.18598211 26.11083984 0.22705078 C25.20336914 2.6965332 25.20336914 2.6965332 23.11083984 5.22705078 C19.96259047 5.96817553 16.84888062 5.80729047 13.63037109 5.71533203 C12.23838753 5.70471992 12.23838753 5.70471992 10.81828308 5.69389343 C7.85248404 5.66589021 4.88856876 5.60314111 1.92333984 5.53955078 C-0.08639853 5.51447556 -2.09616647 5.49166104 -4.10595703 5.47119141 C-9.03441792 5.41604405 -13.96146962 5.32973075 -18.88916016 5.22705078 C-18.55916016 4.56705078 -18.22916016 3.90705078 -17.88916016 3.22705078 C-15.01806641 2.88330078 -15.01806641 2.88330078 -11.45166016 2.72705078 C-6.616286 2.51474017 -4.26742808 0.33536489 0 0 Z " fill="#A7A7A7" transform="translate(418.88916015625,199.77294921875)"/>
<path d="M0 0 C1.21042969 -0.00515625 2.42085938 -0.0103125 3.66796875 -0.015625 C6.8125 0.25 6.8125 0.25 9.8125 2.25 C9.4825 2.91 9.1525 3.57 8.8125 4.25 C8.14605469 4.22679687 7.47960937 4.20359375 6.79296875 4.1796875 C-9.45731978 3.86150003 -23.67511293 8.67558887 -37.015625 17.83203125 C-39.1875 19.25 -39.1875 19.25 -42.1875 20.25 C-40.45405469 14.16180182 -36.10308056 12.17226599 -30.91796875 9.1796875 C-25.27583241 6.13897956 -19.28885076 4.17674234 -13.1875 2.25 C-12.21039063 1.88132813 -11.23328125 1.51265625 -10.2265625 1.1328125 C-6.7046177 0.10972828 -3.66305574 -0.01570442 0 0 Z " fill="#5C5C5C" transform="translate(497.1875,171.75)"/>
<path d="M0 0 C4.6875 0.78125 4.6875 0.78125 9.375 1.5625 C10.674375 1.7790625 10.674375 1.7790625 12 2 C12 2.66 12 3.32 12 4 C24.19727777 5.20664369 35.57601287 4.76856271 47.72045898 3.0300293 C48.73954346 2.88605713 49.75862793 2.74208496 50.80859375 2.59375 C51.71407959 2.45646484 52.61956543 2.31917969 53.55249023 2.17773438 C55.98099047 2.00138044 57.69636181 2.26154684 60 3 C58.46163292 3.65365399 56.91911234 4.29753603 55.375 4.9375 C54.51648438 5.29714844 53.65796875 5.65679687 52.7734375 6.02734375 C40.51116252 10.3277754 25.49604822 8.66743827 13 6.25 C12.15808105 6.09313721 11.31616211 5.93627441 10.44873047 5.7746582 C5.84672199 4.79295289 3.00058309 3.881189 0 0 Z " fill="#4D4F54" transform="translate(480,344)"/>
<path d="M0 0 C0.99 0.66 1.98 1.32 3 2 C2.34 2 1.68 2 1 2 C0.7525 2.86109375 0.505 3.7221875 0.25 4.609375 C-4.52261748 17.55509991 -15.85221725 28.51138856 -26.9921875 36.13671875 C-29.43286897 37.18611681 -30.5512489 36.9059281 -33 36 C-32.14277344 35.35933594 -31.28554688 34.71867187 -30.40234375 34.05859375 C-17.78764675 24.55512834 -7.42925859 14.2124947 0 0 Z " fill="#07090E" transform="translate(593,309)"/>
<path d="M0 0 C0.66 0 1.32 0 2 0 C2 3.63 2 7.26 2 11 C-1.46683472 10.30663306 -4.09282812 9.621287 -7.3125 8.4375 C-21.57481632 4.19226508 -37.63641126 7.87038274 -52 10 C-51.67 9.34 -51.34 8.68 -51 8 C-47.92277703 7.10545844 -44.81870821 6.4606631 -41.6875 5.78125 C-40.800625 5.5234375 -39.91375 5.265625 -39 5 C-38.67 4.34 -38.34 3.68 -38 3 C-24.81923324 2.29135663 -11.06834221 2.96582889 1 9 C0.505 4.545 0.505 4.545 0 0 Z " fill="#252629" transform="translate(543,176)"/>
<path d="M0 0 C5.65243153 4.60002686 8.50987551 14.45817968 9.27099609 21.51123047 C9.50623008 26.68935575 9.32315417 31.82953321 9 37 C8.67 37 8.34 37 8 37 C7.90203125 36.28457031 7.8040625 35.56914062 7.703125 34.83203125 C6.41054878 26.21857075 4.94087833 16.87772799 0.38671875 9.32421875 C-1.36825697 6.38278057 -1.30614652 4.36761174 -1 1 C-0.67 0.67 -0.34 0.34 0 0 Z " fill="#596A88" transform="translate(588,220)"/>
<path d="M0 0 C2.046875 3.71875 2.046875 3.71875 1.625 6.25 C1.41875 6.8275 1.2125 7.405 1 8 C1.66 8 2.32 8 3 8 C3.39755352 29.00917431 3.39755352 29.00917431 1 38 C-0.485 38.495 -0.485 38.495 -2 39 C-2.33 39.99 -2.66 40.98 -3 42 C-2.54075651 38.71968933 -2.08241162 35.44918432 -1.48461914 32.19091797 C-0.9687642 28.79433155 -0.78993892 25.50374238 -0.68359375 22.0703125 C-0.64169922 20.78125 -0.59980469 19.4921875 -0.55664062 18.1640625 C-0.51683972 16.81771091 -0.47712727 15.47135671 -0.4375 14.125 C-0.39424817 12.75519667 -0.35063188 11.38540479 -0.30664062 10.015625 C-0.20084478 6.67717843 -0.09875628 3.338661 0 0 Z " fill="#C2C4C4" transform="translate(597,247)"/>
<path d="M0 0 C3.37543847 0.56257308 5.95883135 1.47941568 9 3 C9.99 3 10.98 3 12 3 C10.7508258 6.45925163 9.32472205 9.14693203 7 12 C3.33118845 11.29445932 0.29549466 9.72264494 -3 8 C-2.67 6.68 -2.34 5.36 -2 4 C-1.34 4 -0.68 4 0 4 C0 2.68 0 1.36 0 0 Z " fill="#485572" transform="translate(548,192)"/>
<path d="M0 0 C2.475 0.495 2.475 0.495 5 1 C5 1.99 5 2.98 5 4 C11.6 4 18.2 4 25 4 C25 4.33 25 4.66 25 5 C19.06 5 13.12 5 7 5 C7.33 5.99 7.66 6.98 8 8 C8.66 8.33 9.32 8.66 10 9 C14.36052202 16.00326264 14.36052202 16.00326264 15 20 C8.08975566 14.85749258 4.59752553 9.19219592 2 1 C1.34 0.67 0.68 0.34 0 0 Z " fill="#3E424A" transform="translate(432,303)"/>
<path d="M0 0 C0 0.33 0 0.66 0 1 C-3.96 1.66 -7.92 2.32 -12 3 C-7.38 2.67 -2.76 2.34 2 2 C2 2.66 2 3.32 2 4 C1.14277344 4.06058594 0.28554688 4.12117187 -0.59765625 4.18359375 C-6.43604873 4.61143536 -12.22057272 5.059163 -18 6 C-18 7.65 -18 9.3 -18 11 C-18.33 11 -18.66 11 -19 11 C-19 8.69 -19 6.38 -19 4 C-19.99 3.67 -20.98 3.34 -22 3 C-14.27412832 -0.55390097 -8.40513437 -1.21407496 0 0 Z " fill="#363A44" transform="translate(509,181)"/>
<path d="M0 0 C0 1.65 0 3.3 0 5 C-8.25 5 -16.5 5 -25 5 C-25 4.67 -25 4.34 -25 4 C-21.20881056 3.33060003 -17.41697345 2.66494321 -13.625 2 C-12.54476562 1.80921875 -11.46453125 1.6184375 -10.3515625 1.421875 C-9.3203125 1.24140625 -8.2890625 1.0609375 -7.2265625 0.875 C-5.79691162 0.62363281 -5.79691162 0.62363281 -4.33837891 0.3671875 C-2 0 -2 0 0 0 Z " fill="#C2C2C2" transform="translate(195,264)"/>
<path d="M0 0 C3.08489107 0.35594897 4.22744758 1.19766278 6.625 3.28125 C10.21281711 6.34280272 14.13755874 8.29339372 18.375 10.3125 C19.47908203 10.85100586 19.47908203 10.85100586 20.60546875 11.40039062 C22.40004002 12.27437014 24.19952337 13.13825168 26 14 C26 14.33 26 14.66 26 15 C16.11552281 14.36907592 8.24223765 8.41778649 1 2 C0.67 1.34 0.34 0.68 0 0 Z " fill="#444A51" transform="translate(453,329)"/>
<path d="M0 0 C-1.49120692 2.98241384 -3.77804628 3.51313682 -6.75 4.9375 C-10.6212656 6.80161927 -14.34766226 8.73419789 -18 11 C-18 10.01 -18 9.02 -18 8 C-17.34 7.67 -16.68 7.34 -16 7 C-16.33 6.34 -16.66 5.68 -17 5 C-11.09493185 1.17264102 -7.07487342 -0.64317031 0 0 Z " fill="#414958" transform="translate(482,188)"/>
<path d="M0 0 C4.95 0 9.9 0 15 0 C15 0.66 15 1.32 15 2 C10.71 2 6.42 2 2 2 C2 5.96 2 9.92 2 14 C3.32 14.33 4.64 14.66 6 15 C4.02 15 2.04 15 0 15 C0 10.05 0 5.1 0 0 Z " fill="#909090" transform="translate(42,278)"/>
<path d="M0 0 C0.99 0.66 1.98 1.32 3 2 C2.34 2 1.68 2 1 2 C0.76539063 2.84820312 0.53078125 3.69640625 0.2890625 4.5703125 C-1.18910173 8.5031252 -3.17797545 11.49504734 -5.625 14.875 C-6.04523437 15.46796875 -6.46546875 16.0609375 -6.8984375 16.671875 C-7.92565422 18.11931674 -8.9619063 19.56033919 -10 21 C-10.66 19.68 -11.32 18.36 -12 17 C-11.13375 16.05125 -10.2675 15.1025 -9.375 14.125 C-5.62965751 9.78218621 -2.82235671 4.97415349 0 0 Z " fill="#111419" transform="translate(593,309)"/>
<path d="M0 0 C0.66 0.33 1.32 0.66 2 1 C1.67 1.33 1.34 1.66 1 2 C15.19 2 29.38 2 44 2 C44.495 2.99 44.495 2.99 45 4 C28.83 4 12.66 4 -4 4 C-2.68 2.68 -1.36 1.36 0 0 Z " fill="#181E2B" transform="translate(490,227)"/>
<path d="M0 0 C2.475 0.99 2.475 0.99 5 2 C5 2.66 5 3.32 5 4 C5.556875 4.226875 6.11375 4.45375 6.6875 4.6875 C12.49810286 7.98540973 16.68249786 13.98572518 21 19 C20.01 19.33 19.02 19.66 18 20 C17.50371094 19.34773438 17.00742187 18.69546875 16.49609375 18.0234375 C9.61988549 8.78764824 9.61988549 8.78764824 0 3 C0 2.01 0 1.02 0 0 Z " fill="#383E44" transform="translate(559,196)"/>
<path d="M0 0 C-9.22250126 5.52401746 -18.76753098 3.96651658 -29 3 C-29 2.67 -29 2.34 -29 2 C-24.91813323 1.46721367 -20.83435345 0.95084629 -16.75 0.4375 C-15.59113281 0.28603516 -14.43226563 0.13457031 -13.23828125 -0.02148438 C-12.12324219 -0.16005859 -11.00820313 -0.29863281 -9.859375 -0.44140625 C-8.83295898 -0.57232666 -7.80654297 -0.70324707 -6.74902344 -0.83813477 C-4.19301503 -0.98863508 -2.41329977 -0.79012848 0 0 Z " fill="#3C434E" transform="translate(540,347)"/>
<path d="M0 0 C1.2375 -0.01417969 2.475 -0.02835938 3.75 -0.04296875 C7 0.1875 7 0.1875 10 2.1875 C9.67 2.8475 9.34 3.5075 9 4.1875 C6.58265458 4.26867951 4.16805051 4.32806926 1.75 4.375 C1.06808594 4.40013672 0.38617188 4.42527344 -0.31640625 4.45117188 C-3.59199289 4.49887459 -5.65348556 4.39835076 -8.484375 2.67578125 C-8.98453125 2.18464844 -9.4846875 1.69351563 -10 1.1875 C-6.50953395 0.02401132 -3.67722983 0.01915224 0 0 Z " fill="#656565" transform="translate(497,171.8125)"/>
<path d="M0 0 C0 0.66 0 1.32 0 2 C-1.3894043 3.26513672 -1.3894043 3.26513672 -3.32421875 4.6796875 C-4.02353516 5.19660156 -4.72285156 5.71351563 -5.44335938 6.24609375 C-6.18392578 6.78363281 -6.92449219 7.32117188 -7.6875 7.875 C-9.12941274 8.93420668 -10.57083007 9.99408816 -12.01171875 11.0546875 C-12.70056152 11.55581055 -13.3894043 12.05693359 -14.09912109 12.57324219 C-15.72933849 13.79684744 -17.28922722 15.11318102 -18.83203125 16.4453125 C-19.90517578 17.21488281 -19.90517578 17.21488281 -21 18 C-21.99 17.67 -22.98 17.34 -24 17 C-23.23816406 16.443125 -22.47632813 15.88625 -21.69140625 15.3125 C-15.77861835 10.94249945 -10.16746055 6.52310478 -4.83984375 1.43359375 C-3 0 -3 0 0 0 Z " fill="#4C5D7C" transform="translate(574,320)"/>
<path d="M0 0 C0 3 0 3 -2.01171875 5.15625 C-3.33623047 6.31640625 -3.33623047 6.31640625 -4.6875 7.5 C-5.55761719 8.2734375 -6.42773438 9.046875 -7.32421875 9.84375 C-9.81821022 11.85350663 -12.12424625 13.58835305 -15 15 C-15.99 14.67 -16.98 14.34 -18 14 C-15.31158141 11.74754119 -13.35358125 10.11786042 -10 9 C-9.319375 8.319375 -8.63875 7.63875 -7.9375 6.9375 C-7.298125 6.298125 -6.65875 5.65875 -6 5 C-5.34 5 -4.68 5 -4 5 C-4 4.34 -4 3.68 -4 3 C-2 1.375 -2 1.375 0 0 Z " fill="#3D4246" transform="translate(571,325)"/>
<path d="M0 0 C0.66 0 1.32 0 2 0 C3.4606285 2.64738916 4 3.89448334 4 7 C1.69 7.66 -0.62 8.32 -3 9 C-3.33 7.35 -3.66 5.7 -4 4 C-2.68 3.34 -1.36 2.68 0 2 C0 1.34 0 0.68 0 0 Z " fill="#C3C6C7" transform="translate(597,224)"/>
<path d="M0 0 C9.15244471 -0.30659554 17.34796755 -0.49409003 26 3 C26 3.33 26 3.66 26 4 C24.865625 3.855625 23.73125 3.71125 22.5625 3.5625 C21.83804688 3.47355469 21.11359375 3.38460937 20.3671875 3.29296875 C18.76725509 3.09495731 17.16828724 2.88901582 15.5703125 2.67578125 C14.78398438 2.57652344 13.99765625 2.47726563 13.1875 2.375 C12.09501953 2.23191406 12.09501953 2.23191406 10.98046875 2.0859375 C8.78688349 1.87267355 8.78688349 1.87267355 6 3 C2.8125 2.0625 2.8125 2.0625 0 1 C0 0.67 0 0.34 0 0 Z " fill="#3C424C" transform="translate(514,182)"/>
<path d="M0 0 C-0.625 1.875 -0.625 1.875 -2 4 C-6.03637365 5.88364104 -8.72757499 6.25659559 -13 5 C-10.74037349 0.48074698 -4.66953512 -0.42450319 0 0 Z " fill="#D2D1D4" transform="translate(550,345)"/>
<path d="M0 0 C6.34339651 1.80610595 11.56938255 4.25627734 17 8 C16.67 8.66 16.34 9.32 16 10 C10.66666667 7.33333333 5.33333333 4.66666667 0 2 C0 1.34 0 0.68 0 0 Z " fill="#3D3F45" transform="translate(541,186)"/>
<path d="M0 0 C0 0.99 0 1.98 0 3 C-2.40545638 4.20272819 -3.94996953 4.10071472 -6.625 4.0625 C-7.85089844 4.04896484 -7.85089844 4.04896484 -9.1015625 4.03515625 C-10.04128906 4.01775391 -10.04128906 4.01775391 -11 4 C-11.33 3.34 -11.66 2.68 -12 2 C-7.8803623 0.70756464 -4.33168317 -0.26252625 0 0 Z " fill="#566784" transform="translate(537,360)"/>
<path d="M0 0 C1.18613892 0.00785522 1.18613892 0.00785522 2.39624023 0.01586914 C3.67724609 0.02070313 3.67724609 0.02070313 4.98413086 0.02563477 C5.88196289 0.03401367 6.77979492 0.04239258 7.70483398 0.05102539 C8.6065332 0.05553711 9.50823242 0.06004883 10.43725586 0.06469727 C12.67234712 0.07652315 14.90730835 0.09300319 17.14233398 0.11352539 C17.14233398 0.44352539 17.14233398 0.77352539 17.14233398 1.11352539 C11.86233398 1.11352539 6.58233398 1.11352539 1.14233398 1.11352539 C1.14233398 1.77352539 1.14233398 2.43352539 1.14233398 3.11352539 C2.46233398 3.11352539 3.78233398 3.11352539 5.14233398 3.11352539 C5.47233398 4.10352539 5.80233398 5.09352539 6.14233398 6.11352539 C2.36688011 5.02283871 -0.32810074 4.20521629 -2.85766602 1.11352539 C-1.85766602 0.11352539 -1.85766602 0.11352539 0 0 Z " fill="#030810" transform="translate(440.857666015625,222.886474609375)"/>
<path d="M0 0 C7.75 -0.125 7.75 -0.125 10 1 C10.99 0.67 11.98 0.34 13 0 C12.67 0.99 12.34 1.98 12 3 C8.04 3 4.08 3 0 3 C0 2.01 0 1.02 0 0 Z " fill="#4B5972" transform="translate(511,183)"/>
<path d="M0 0 C0.66 0.33 1.32 0.66 2 1 C2 6.94 2 12.88 2 19 C1.67 19 1.34 19 1 19 C0.63752129 16.39674384 0.28472345 13.79279598 -0.0625 11.1875 C-0.2181543 10.08051758 -0.2181543 10.08051758 -0.37695312 8.95117188 C-0.82086566 5.56825221 -1.09314992 3.27944975 0 0 Z " fill="#657085" transform="translate(595,238)"/>
<path d="M0 0 C0.53625 0.391875 1.0725 0.78375 1.625 1.1875 C-1.06341859 3.43995881 -3.02141875 5.06963958 -6.375 6.1875 C-6.375 5.5275 -6.375 4.8675 -6.375 4.1875 C-7.035 3.5275 -7.695 2.8675 -8.375 2.1875 C-2.95961538 -1.0125 -2.95961538 -1.0125 0 0 Z " fill="#C5C6C6" transform="translate(555.375,341.8125)"/>
<path d="M0 0 C0.66 0 1.32 0 2 0 C0.63589551 5.59282842 -2.15383526 8.91193811 -6 13 C-6.33 12.34 -6.66 11.68 -7 11 C-5.63671875 8.3984375 -5.63671875 8.3984375 -3.6875 5.375 C-3.05199219 4.37210937 -2.41648437 3.36921875 -1.76171875 2.3359375 C-1.18035156 1.56507813 -0.59898437 0.79421875 0 0 Z " fill="#3F4145" transform="translate(583,308)"/>
<path d="M0 0 C0.33 0.66 0.66 1.32 1 2 C1.66 2.33 2.32 2.66 3 3 C1.1875 6 1.1875 6 -1 9 C-1.99 9 -2.98 9 -4 9 C-2.94124926 5.59687262 -1.99097846 2.98646769 0 0 Z " fill="#454B55" transform="translate(443,212)"/>
<path d="M0 0 C0.99 0.33 1.98 0.66 3 1 C2.67 3.64 2.34 6.28 2 9 C1.01 9.33 0.02 9.66 -1 10 C-1.33 10.99 -1.66 11.98 -2 13 C-1.39174965 8.65535464 -0.73832608 4.32448133 0 0 Z " fill="#B4B5B5" transform="translate(596,276)"/>
<path d="M0 0 C2.92452129 2.01691123 5.25203188 3.87205706 7 7 C6.6875 9.75 6.6875 9.75 6 12 C3.25207517 8.59780735 0 4.51535412 0 0 Z " fill="#444B53" transform="translate(584,225)"/>
<path d="M0 0 C-1.97420135 2.52259061 -2.96745642 2.9929808 -6.1875 3.6875 C-7.5796875 3.8421875 -7.5796875 3.8421875 -9 4 C-8.67 3.01 -8.34 2.02 -8 1 C-8.33 0.34 -8.66 -0.32 -9 -1 C-5.23375329 -2.25541557 -3.62811066 -1.37061958 0 0 Z " fill="#B6B9B7" transform="translate(542,350)"/>
<path d="M0 0 C0.66 0.33 1.32 0.66 2 1 C0.60369274 3.65298379 -0.46969463 5.62365425 -2.9375 7.375 C-5 8 -5 8 -9 7 C-6.03 4.69 -3.06 2.38 0 0 Z " fill="#15171B" transform="translate(569,338)"/>
<path d="M0 0 C4.29 0 8.58 0 13 0 C11.02 0.99 11.02 0.99 9 2 C9 2.66 9 3.32 9 4 C6.03 3.01 3.06 2.02 0 1 C0 0.67 0 0.34 0 0 Z " fill="#8D8D8D" transform="translate(83,309)"/>
<path d="M0 0 C0.99 0.66 1.98 1.32 3 2 C2.34 2 1.68 2 1 2 C0.566875 3.423125 0.566875 3.423125 0.125 4.875 C-1 8 -1 8 -3 10 C-3.66 9.34 -4.32 8.68 -5 8 C-3.35 5.36 -1.7 2.72 0 0 Z " fill="#1B1F26" transform="translate(593,309)"/>
<path d="M0 0 C2 2 2 2 2 6 C0.02 6 -1.96 6 -4 6 C-2.84826645 3.53199953 -1.95216435 1.95216435 0 0 Z " fill="#C3C3C3" transform="translate(434,218)"/>
<path d="M0 0 C0 0.33 0 0.66 0 1 C-2.12368444 1.22134176 -4.24904024 1.42670007 -6.375 1.625 C-7.55835938 1.74101562 -8.74171875 1.85703125 -9.9609375 1.9765625 C-10.96382813 1.98429688 -11.96671875 1.99203125 -13 2 C-13.66 1.34 -14.32 0.68 -15 0 C-9.77254141 -1.2063366 -5.23471686 -0.75612577 0 0 Z " fill="#555656" transform="translate(509,181)"/>
<path d="M0 0 C4.62 0 9.24 0 14 0 C14 0.33 14 0.66 14 1 C9.71 1.66 5.42 2.32 1 3 C0.67 2.01 0.34 1.02 0 0 Z " fill="#A0A0A0" transform="translate(56,288)"/>
<path d="M0 0 C0 3.34419152 -0.47519394 4.06840321 -2.375 6.6875 C-2.81585938 7.31011719 -3.25671875 7.93273437 -3.7109375 8.57421875 C-4.13632812 9.04472656 -4.56171875 9.51523438 -5 10 C-5.66 10 -6.32 10 -7 10 C-6.42424336 6.64749299 -5.40693737 5.06181371 -2.9375 2.75 C-2.38964844 2.22921875 -1.84179688 1.7084375 -1.27734375 1.171875 C-0.64505859 0.59179688 -0.64505859 0.59179688 0 0 Z " fill="#393E42" transform="translate(451,204)"/>
<path d="M0 0 C4.37859255 0.50522222 6.81651224 3.17827222 10 6 C9.01 6.33 8.02 6.66 7 7 C5.17578125 5.8203125 5.17578125 5.8203125 3.3125 4.125 C2.68988281 3.57070313 2.06726563 3.01640625 1.42578125 2.4453125 C0 1 0 1 0 0 Z " fill="#3E4143" transform="translate(453,329)"/>
<path d="M0 0 C3.96 0 7.92 0 12 0 C9.0278901 1.9814066 7.50610679 2.7434556 4 3 C2.68 2.01 1.36 1.02 0 0 Z " fill="#C1C0C1" transform="translate(548,188)"/>
<path d="M0 0 C0.91007812 0.00902344 1.82015625 0.01804688 2.7578125 0.02734375 C3.45648438 0.03894531 4.15515625 0.05054688 4.875 0.0625 C1.97407498 1.99645001 0.97825263 2.36381941 -2.3125 2.6875 C-3.570625 2.81125 -4.82875 2.935 -6.125 3.0625 C-6.455 2.4025 -6.785 1.7425 -7.125 1.0625 C-4.60024538 -0.19987731 -2.81299534 -0.03606404 0 0 Z " fill="#535353" transform="translate(489.125,173.9375)"/>
<path d="M0 0 C-6.5 4 -6.5 4 -11 4 C-11 3.34 -11 2.68 -11 2 C-9.73392393 1.46770674 -8.46189588 0.94955456 -7.1875 0.4375 C-6.47980469 0.14746094 -5.77210938 -0.14257812 -5.04296875 -0.44140625 C-3 -1 -3 -1 0 0 Z " fill="#3E4046" transform="translate(552,342)"/>
<path d="M0 0 C0.66 0 1.32 0 2 0 C2.33 2.31 2.66 4.62 3 7 C2.67 6.34 2.34 5.68 2 5 C0.35 5.66 -1.3 6.32 -3 7 C-2.01 4.69 -1.02 2.38 0 0 Z " fill="#4F5D76" transform="translate(594,311)"/>
<path d="M0 0 C-0.54723683 3.37462715 -1.0549 5.08235 -3 8 C-3.66 8 -4.32 8 -5 8 C-4.74438677 5.6568787 -4.40729228 3.32156597 -4 1 C-2 0 -2 0 0 0 Z " fill="#42454C" transform="translate(590,298)"/>
<path d="M0 0 C0.88336837 2.4667645 1.1312406 3.63859372 0.22265625 6.140625 C-0.16019531 6.83671875 -0.54304688 7.5328125 -0.9375 8.25 C-1.31777344 8.95640625 -1.69804687 9.6628125 -2.08984375 10.390625 C-2.39019531 10.92171875 -2.69054687 11.4528125 -3 12 C-4.21386936 8.35839192 -3.6674695 7.66834531 -2.0625 4.3125 C-1.49208984 3.10013672 -1.49208984 3.10013672 -0.91015625 1.86328125 C-0.60980469 1.24839844 -0.30945313 0.63351563 0 0 Z " fill="#20232C" transform="translate(472,245)"/>
<path d="M0 0 C0.66 0.99 1.32 1.98 2 3 C2.99 3.66 3.98 4.32 5 5 C2.69 5.33 0.38 5.66 -2 6 C-2.66 4.68 -3.32 3.36 -4 2 C-2.68 1.34 -1.36 0.68 0 0 Z " fill="#495976" transform="translate(560,348)"/>
<path d="M0 0 C0.33 0.66 0.66 1.32 1 2 C0.030625 2.61875 -0.93875 3.2375 -1.9375 3.875 C-5.02835362 5.65678846 -5.02835362 5.65678846 -6 8 C-8 7 -8 7 -9 5 C-6.03 3.35 -3.06 1.7 0 0 Z " fill="#3C465D" transform="translate(550,327)"/>
<path d="M0 0 C4.6875 0.78125 4.6875 0.78125 9.375 1.5625 C10.674375 1.7790625 10.674375 1.7790625 12 2 C12 2.33 12 2.66 12 3 C10.37581255 3.08090971 8.75048255 3.13914995 7.125 3.1875 C5.76761719 3.23970703 5.76761719 3.23970703 4.3828125 3.29296875 C3.20332031 3.14794922 3.20332031 3.14794922 2 3 C1.34 2.01 0.68 1.02 0 0 Z " fill="#3F454F" transform="translate(480,344)"/>
<path d="M0 0 C1.98 0 3.96 0 6 0 C5.67 1.65 5.34 3.3 5 5 C2.5 3.625 2.5 3.625 0 2 C0 1.34 0 0.68 0 0 Z " fill="#525F7A" transform="translate(564,198)"/>
<path d="M0 0 C1.32 1.65 2.64 3.3 4 5 C0.25 8 0.25 8 -2 8 C-1.34 5.36 -0.68 2.72 0 0 Z " fill="#919191" transform="translate(452,188)"/>
<path d="M0 0 C0.66 0.33 1.32 0.66 2 1 C1.34 1.66 0.68 2.32 0 3 C0.66 3.66 1.32 4.32 2 5 C0.35 5.33 -1.3 5.66 -3 6 C-3.33 4.68 -3.66 3.36 -4 2 C-2.125 0.9375 -2.125 0.9375 0 0 Z " fill="#455069" transform="translate(540,357)"/>
<path d="M0 0 C1.32 0.66 2.64 1.32 4 2 C4 2.66 4 3.32 4 4 C3.34 4 2.68 4 2 4 C1.67 4.66 1.34 5.32 1 6 C0.01 4.68 -0.98 3.36 -2 2 C-1.34 1.34 -0.68 0.68 0 0 Z " fill="#52617D" transform="translate(576,206)"/>
<path d="M0 0 C-1.39332574 3.36720387 -2.9789286 4.9859524 -6 7 C-6 4 -6 4 -4.125 1.8125 C-2 0 -2 0 0 0 Z " fill="#C2C2C2" transform="translate(452,202)"/>
<path d="M0 0 C1.98 0.99 1.98 0.99 4 2 C2.25 6.875 2.25 6.875 0 8 C0 5.36 0 2.72 0 0 Z " fill="#9A9A9A" transform="translate(453,184)"/>
<path d="M0 0 C1.32 0.33 2.64 0.66 4 1 C4 1.99 4 2.98 4 4 C3.01 4.33 2.02 4.66 1 5 C0.67 3.35 0.34 1.7 0 0 Z " fill="#5D6E8D" transform="translate(573,203)"/>
</svg>
